<?xml version="1.0" encoding="UTF-8" standalone="no"?>
<!-- Created with Inkscape (http://www.inkscape.org/) -->

<svg
   xmlns:dc="http://purl.org/dc/elements/1.1/"
   xmlns:cc="http://creativecommons.org/ns#"
   xmlns:rdf="http://www.w3.org/1999/02/22-rdf-syntax-ns#"
   xmlns:svg="http://www.w3.org/2000/svg"
   xmlns="http://www.w3.org/2000/svg"
   xmlns:sodipodi="http://sodipodi.sourceforge.net/DTD/sodipodi-0.dtd"
   xmlns:inkscape="http://www.inkscape.org/namespaces/inkscape"
   width="68mm"
   height="68mm"
   viewBox="0 0 68 68"
   version="1.1"
   id="svg8"
   inkscape:version="0.92.4 (5da689c313, 2019-01-14)"
   sodipodi:docname="test.svg">
  <defs
     id="defs2" />
  <sodipodi:namedview
     id="base"
     pagecolor="#ffffff"
     bordercolor="#666666"
     borderopacity="1.0"
     inkscape:pageopacity="0.0"
     inkscape:pageshadow="2"
     inkscape:zoom="0.35"
     inkscape:cx="-64.285714"
     inkscape:cy="331.42857"
     inkscape:document-units="mm"
     inkscape:current-layer="g826"
     showgrid="false"
     inkscape:window-width="1366"
     inkscape:window-height="705"
     inkscape:window-x="-8"
     inkscape:window-y="-8"
     inkscape:window-maximized="1"
     units="mm"
     width="68mm"
     inkscape:pagecheckerboard="true" />
  <metadata
     id="metadata5">
    <rdf:RDF>
      <cc:Work
         rdf:about="">
        <dc:format>image/svg+xml</dc:format>
        <dc:type
           rdf:resource="http://purl.org/dc/dcmitype/StillImage" />
        <dc:title></dc:title>
      </cc:Work>
    </rdf:RDF>
  </metadata>
  <g
     inkscape:label="Layer 1"
     inkscape:groupmode="layer"
     id="layer1"
     transform="translate(0,-229.00001)">
    <g
       id="g826"
       transform="matrix(0.53799392,0,0,0.50069349,-16.034699,197.92373)">
      <path
         style="fill:#d0d0d0;stroke-width:0.26458332"
         d="m 100.93854,192.42725 c -0.87313,-0.1088 -2.297124,-0.39017 -3.164444,-0.62526 -2.014844,-0.54613 -2.179716,-0.54077 -4.549766,0.14788 -1.92423,0.55911 -2.002716,0.56188 -2.786896,0.0987 -0.667893,-0.39453 -1.138674,-0.44659 -2.732701,-0.30214 -1.682851,0.1525 -2.105282,0.0951 -3.348509,-0.45468 -0.782489,-0.34605 -1.939321,-0.95531 -2.570739,-1.35391 -1.65549,-1.04506 -3.137064,-1.5141 -4.747339,-1.50291 -1.190456,0.008 -1.52106,-0.10204 -2.116666,-0.70629 -0.388221,-0.39385 -1.298089,-0.95502 -2.02193,-1.24705 -1.027211,-0.41441 -1.549871,-0.86002 -2.38125,-2.0302 -0.585846,-0.82459 -1.600957,-2.17902 -2.255801,-3.00986 -2.644949,-3.35579 -2.7296,-3.57485 -1.969854,-5.0978 0.529137,-1.06068 0.206145,-1.71165 -1.206966,-2.43256 -1.420188,-0.72453 -2.872073,-2.23049 -3.483935,-3.61371 -1.517658,-3.43092 -0.502399,-8.34781 2.476939,-11.99578 4.167058,-5.10225 5.294767,-10.65351 2.732241,-13.44971 -0.807731,-0.88139 -0.985777,-0.95201 -2.422099,-0.9607 l -1.550284,-0.009 0.05713,-0.79375 c 0.08145,-1.13168 0.878546,-1.65037 2.862736,-1.86286 1.577324,-0.16892 1.809353,-0.12632 2.768322,0.5083 3.061134,2.02576 7.250671,9.28794 9.837025,17.05159 0.793608,2.38223 0.853483,2.81539 0.865762,6.26338 0.01267,3.55578 -0.01532,3.75265 -0.69828,4.91438 -0.391311,0.66562 -1.263171,1.82384 -1.937472,2.57382 -1.269736,1.41225 -1.33853,1.90451 -0.266158,1.90451 0.923885,0 2.131809,1.15255 3.08788,2.94633 0.807966,1.51589 1.771232,2.34534 2.723737,2.34534 0.225089,0 0.856078,0.39512 1.402202,0.87805 1.27123,1.12413 2.48475,1.84892 4.273193,2.55219 1.346845,0.52963 1.496406,0.53836 2.62682,0.15318 1.672193,-0.56977 2.771809,-0.51092 4.226475,0.22622 0.688824,0.34905 1.768486,0.77361 2.39925,0.94346 1.05942,0.28527 1.220438,0.25787 2.112237,-0.35942 0.86059,-0.59568 1.32444,-0.68714 4.27268,-0.84248 3.7804,-0.19918 4.78158,-0.52612 6.7012,-2.18827 0.70249,-0.60827 1.59708,-1.27132 1.98798,-1.47347 1.09463,-0.56605 3.34999,-3.08682 4.1182,-4.60281 1.41492,-2.7922 1.54195,-7.7825 0.3195,-12.5517 -1.20938,-4.71822 -2.9979,-7.09672 -8.90685,-11.84497 -1.53529,-1.23371 -4.20816,-3.43373 -5.93971,-4.88894 -1.73155,-1.45521 -3.468342,-2.88396 -3.859536,-3.175 -0.391195,-0.29104 -2.421295,-1.9622 -4.511334,-3.71368 -2.090039,-1.75148 -6.131022,-5.10764 -8.979963,-7.45813 -8.952044,-7.3858 -11.031031,-10.17355 -12.829534,-17.20337 -2.018331,-7.88906 -1.229437,-15.645056 2.100855,-20.654535 3.973684,-5.977271 11.161998,-9.315739 22.073395,-10.251544 l 2.196079,-0.188344 -0.157319,-0.71627 c -0.102886,-0.468434 -0.02222,-0.828392 0.23313,-1.040314 0.214746,-0.178224 0.38001,-0.691191 0.367252,-1.139926 -0.02917,-1.02587 0.487569,-1.414072 2.181365,-1.638762 1.57122,-0.20843 2.30373,0.110834 2.54177,1.107822 0.29639,1.241368 0.57411,1.406124 2.05316,1.218018 1.86009,-0.236568 2.27911,-0.500102 2.27911,-1.433401 0,-1.187287 0.73447,-1.733541 2.59186,-1.927676 1.25337,-0.131004 1.8788,-0.363938 2.77702,-1.034279 1.2458,-0.929733 1.49516,-1.358712 2.15538,-3.707913 0.47216,-1.680055 1.16537,-2.33582 2.50959,-2.37404 0.68608,-0.01951 0.81407,-0.12728 0.81407,-0.685511 0,-0.364301 0.30371,-1.060557 0.67492,-1.547236 0.80422,-1.054381 1.88887,-1.174889 3.22768,-0.358603 1.00861,0.614964 1.07959,1.213093 0.33786,2.847171 -0.40198,0.885577 -0.65052,1.124479 -1.16982,1.124479 -0.6954,0 -1.48314,0.856477 -1.48314,1.612555 0,0.299611 0.31112,0.486532 0.99218,0.596097 1.34009,0.215585 2.12845,0.819501 2.39948,1.8381 0.31672,1.1903 -0.0595,2.312716 -1.06025,3.163144 l -0.85622,0.727604 h 1.59074 c 1.69977,0 2.22573,0.286206 2.22573,1.211145 0,0.778961 -0.46638,1.112065 -1.86521,1.332197 -1.43536,0.225881 -2.36812,0.79316 -2.36812,1.440223 0,0.265717 -0.11906,0.556707 -0.26458,0.646644 -0.28884,0.178512 -0.35628,3.070289 -0.0944,4.047988 l 0.16296,0.608405 0.50519,-0.542259 c 0.61998,-0.665468 2.11891,-0.725914 2.635,-0.106259 0.21694,0.260482 0.41638,1.352228 0.49541,2.711978 l 0.13229,2.27598 1.71144,0.08027 c 1.18507,0.05558 2.01644,-0.05727 2.70316,-0.366937 0.925,-0.417119 1.03683,-0.417658 1.662,-0.008 0.93156,0.610378 0.84056,1.144815 -0.38805,2.279065 -0.7124,0.65768 -1.05834,1.201722 -1.05834,1.664396 0,1.194734 -1.01058,2.058657 -2.6506,2.265947 -1.37672,0.174011 -1.44789,0.220136 -1.40023,0.907541 0.0276,0.39832 0.31712,1.09904 0.64333,1.55717 0.52304,0.73454 0.58634,1.11716 0.53573,3.23822 -0.0316,1.32289 0.0601,3.80891 0.20361,5.52447 0.25507,3.04821 0.24625,3.14698 -0.3875,4.33889 -0.51434,0.96734 -0.6485,1.6116 -0.6485,3.11407 0,1.25608 -0.1309,2.06746 -0.38846,2.40799 -0.21366,0.28248 -0.39225,1.01401 -0.39688,1.62562 -0.0106,1.40686 -0.48256,2.45985 -1.10242,2.45985 -0.62844,0 -1.28506,-1.30069 -1.29566,-2.56655 -0.005,-0.55293 -0.18322,-1.23644 -0.39687,-1.51892 -0.25012,-0.33069 -0.38846,-1.13329 -0.38846,-2.25369 0,-1.43731 -0.11952,-1.91599 -0.68689,-2.75094 -0.6684,-0.98365 -0.68897,-1.14009 -0.76448,-5.8161 -0.0503,-3.11418 -0.19329,-5.05548 -0.40634,-5.51624 -0.28991,-0.627 -0.2465,-0.8513 0.36761,-1.8992 0.92164,-1.57266 0.87935,-2.08223 -0.24393,-2.938996 -0.85668,-0.65342 -1.07498,-0.701556 -2.45516,-0.541366 -1.2916,0.149905 -1.58209,0.101544 -1.97092,-0.328108 -0.3764,-0.415914 -0.72162,-0.483256 -1.97662,-0.385574 -0.98806,0.0769 -1.7114,0.29256 -2.0655,0.615807 -0.77922,0.711335 -3.57206,0.985967 -4.05907,0.399148 -0.19557,-0.235644 -0.63164,-0.428443 -0.96904,-0.428443 -0.41813,0 -1.05839,-0.505465 -2.01084,-1.5875 -1.30311,-1.480415 -1.4746,-1.5875 -2.54228,-1.5875 -1.19453,0 -2.369588,-0.46632 -2.95623,-1.173178 -0.695087,-0.837531 -6.133097,-0.314114 -9.337764,0.898776 -3.410543,1.290807 -5.615077,3.539972 -6.594954,6.728454 -0.476551,1.55069 -0.535281,2.20867 -0.392128,4.39309 0.203134,3.09969 1.22479,7.30062 2.166141,8.90692 1.45466,2.48219 2.988548,3.79817 26.566075,22.79206 10.61571,8.55195 13.89515,12.12842 15.91593,17.35752 1.69972,4.3983 2.65253,11.40493 2.14229,15.75375 -0.94155,8.02505 -5.12588,13.36645 -12.85783,16.41334 -1.14908,0.45281 -2.51566,1.17479 -3.03685,1.6044 -0.64586,0.53238 -1.24438,0.78317 -1.87953,0.78758 -1.70233,0.0118 -3.29273,0.54035 -5.20122,1.72851 -2.00276,1.24684 -2.21745,1.28382 -5.25568,0.90522 z m -14.553388,-2.11053 c 0.769872,-0.29271 0.665361,-0.79425 -0.165502,-0.79425 -0.292846,0 -0.711044,-0.17859 -0.929325,-0.39687 -0.437322,-0.43732 -1.946576,-0.54729 -1.946576,-0.14183 0,0.2565 1.813798,1.59704 2.16086,1.59704 0.102269,0 0.498512,-0.11884 0.880543,-0.26409 z m 17.809588,-3.61297 c 0.0982,-0.68909 -0.82895,-1.41461 -1.80774,-1.41461 -0.37551,0 -1.20827,0.38647 -1.85057,0.85882 l -1.167812,0.85882 0.784962,0.17373 c 0.43173,0.0956 1.49933,0.15557 2.37246,0.13337 1.40862,-0.0358 1.59665,-0.10457 1.6687,-0.61013 z m -12.809508,0.0189 c 0.267248,-0.69642 0.185267,-0.90438 -0.356531,-0.90438 -0.284422,0 -1.321856,-0.2921 -2.305405,-0.64911 -0.983551,-0.35701 -1.81593,-0.62146 -1.849733,-0.58765 -0.114695,0.11469 0.303665,0.57267 1.431885,1.56748 1.236133,1.08997 2.771888,1.37604 3.079784,0.57368 z m -14.866627,-2.03886 c 0.148103,-0.77474 -0.0113,-1.24677 -0.421045,-1.24677 -0.516382,0 -1.922412,-1.59835 -2.769891,-3.14876 -0.614942,-1.125 -1.165032,-1.67599 -2.586003,-2.59026 -1.847601,-1.18877 -2.617925,-1.33358 -3.089566,-0.5808 -0.450775,0.71947 -0.03096,1.21724 2.288784,2.71372 2.102003,1.35603 2.257647,1.52127 2.687642,2.85347 0.753327,2.33393 1.012013,2.60471 2.488396,2.60471 1.129779,0 1.300025,-0.0735 1.401683,-0.6053 z m 4.461287,-2.57901 c 0.776031,-0.41532 0.633135,-0.65698 -0.811143,-1.37174 -1.438368,-0.71184 -1.607831,-0.5447 -0.79665,0.78573 0.562962,0.92332 0.809564,1.01321 1.607793,0.58601 z m -8.748643,-9.48624 c 0,-0.12932 -0.440946,-0.31786 -0.979881,-0.41896 -2.226165,-0.41763 -4.03052,-1.94055 -4.583462,-3.86855 -0.284361,-0.99151 -0.0013,-1.57192 1.496753,-3.07006 0.518644,-0.51865 0.89159,-1.15806 0.89159,-1.52862 0,-0.35036 0.113864,-0.70739 0.253029,-0.7934 0.139166,-0.086 0.185375,-0.33268 0.10269,-0.54815 -0.08268,-0.21548 -0.03128,-0.53909 0.114221,-0.71913 0.145508,-0.18005 0.348575,-0.95231 0.451263,-1.71613 0.102687,-0.76382 0.286774,-1.45061 0.40908,-1.5262 0.122306,-0.0756 0.155448,-0.54987 0.07365,-1.05394 -0.112988,-0.69626 -0.04522,-0.95623 0.282003,-1.0818 0.274196,-0.10522 0.430734,-0.47409 0.430734,-1.015 0,-1.0319 -0.73156,-3.59159 -1.02648,-3.59159 -0.116726,0 -0.352436,0.62508 -0.523798,1.38907 -0.416248,1.85577 -1.481267,3.62457 -3.624273,6.01927 -2.40026,2.68216 -3.402783,4.82265 -3.407823,7.27604 -0.0043,2.08205 0.539536,3.41202 1.938586,4.74109 0.722651,0.6865 0.888458,0.73796 1.491888,0.46302 0.976622,-0.44498 1.377833,-0.38608 3.299817,0.48443 1.713134,0.77592 2.910416,1.00572 2.910416,0.55861 z M 113.56519,89.616169 c -0.0882,-4.104026 -0.18714,-4.669675 -0.796,-4.550485 -0.40744,0.07976 -0.44362,0.451507 -0.35575,3.6556 0.0975,3.553812 0.31818,4.622406 0.91228,4.416692 0.22417,-0.07762 0.29203,-1.075703 0.23947,-3.521807 z m -8.63075,-3.780364 c -0.47469,-0.524531 -0.56358,-1.500022 -0.15944,-1.749794 0.14552,-0.08994 0.26458,-0.454151 0.26458,-0.809365 0,-0.541215 -0.12859,-0.645843 -0.79375,-0.645843 -0.74335,0 -0.79375,0.06414 -0.79375,1.010236 0,0.733165 0.23505,1.31606 0.85702,2.125311 0.47135,0.613291 0.90029,0.985233 0.95319,0.826537 0.0529,-0.158695 -0.0946,-0.499382 -0.32785,-0.757082 z"
         id="path840"
         inkscape:connector-curvature="0" />
      <path
         style="fill:#afafaf;stroke-width:0.26458332"
         d="m 101.6,192.26044 c -0.50933,-0.0483 -2.032513,-0.35419 -3.384862,-0.67981 l -2.458817,-0.59206 -2.258719,0.59836 -2.258719,0.59835 -0.892429,-0.55155 c -0.805611,-0.4979 -1.044636,-0.52395 -2.457058,-0.26783 -2.510962,0.45533 -3.426759,-0.21589 -1.106064,-0.81066 0.727604,-0.18648 1.322916,-0.42499 1.322916,-0.53002 0,-0.10503 -0.565546,-0.46528 -1.25677,-0.80056 -1.22604,-0.5947 -4.564063,-1.04884 -4.564063,-0.62095 0,0.11067 0.446485,0.59584 0.992188,1.07815 0.545703,0.4823 0.867696,0.88187 0.715539,0.88793 -0.152157,0.006 -1.28325,-0.50486 -2.513542,-1.13537 -1.230291,-0.63051 -2.524363,-1.2198 -2.875716,-1.30952 -0.525187,-0.13412 -0.581734,-0.23194 -0.317881,-0.54986 0.379373,-0.45711 0.227108,-0.56958 -1.093817,-0.80793 -1.043707,-0.18833 -1.339971,0.18508 -0.674687,0.85036 0.246944,0.24695 0.169,0.3175 -0.350755,0.3175 -0.371505,0 -0.945441,-0.29505 -1.292456,-0.66443 -0.34331,-0.36544 -1.05379,-0.78011 -1.578842,-0.92149 -1.102442,-0.29686 -1.944656,-1.0068 -2.524443,-2.12799 -0.22416,-0.43347 -1.222936,-1.80969 -2.219504,-3.05825 -2.527025,-3.16603 -2.603945,-3.33632 -2.040583,-4.5177 0.632743,-1.32687 0.217842,-2.30228 -1.258002,-2.95747 -1.259122,-0.55899 -2.936919,-2.31109 -3.550186,-3.70741 -0.601576,-1.3697 -0.573379,-5.04175 0.05311,-6.91609 0.595844,-1.78267 1.244221,-2.92143 2.607061,-4.5788 3.58122,-4.35521 4.955767,-9.49221 3.397969,-12.69898 -0.793437,-1.63331 -1.630582,-2.18043 -3.257761,-2.12913 -1.169673,0.0369 -1.267688,-0.009 -1.267688,-0.58921 0,-0.86388 1.071388,-1.50425 2.736353,-1.63554 1.180393,-0.0931 1.527778,0.002 2.57235,0.70026 0.664216,0.44433 1.89443,1.72734 2.733815,2.85114 2.817212,3.77179 6.794905,12.65494 7.595378,16.96231 0.170148,0.91559 0.251021,2.75492 0.180316,4.10105 -0.152363,2.90074 -0.660437,4.08106 -2.67249,6.20851 -1.098383,1.16138 -1.296143,1.50784 -1.068239,1.8715 0.153826,0.24544 0.55645,0.48707 0.894717,0.53694 1.081286,0.15941 1.732455,0.79375 2.783986,2.71204 1.007266,1.83753 1.893509,2.62124 2.964188,2.62124 0.269721,0 0.887425,0.40962 1.372674,0.91027 0.910269,0.93916 4.03071,2.60203 5.451231,2.90493 0.495668,0.10569 1.179676,0.0156 1.777439,-0.23419 1.4264,-0.59599 2.564648,-0.50028 4.319876,0.36325 0.859985,0.4231 2.051663,0.84725 2.648169,0.94256 0.917789,0.14664 1.20564,0.0714 1.872012,-0.48931 0.718916,-0.60493 1.085076,-0.67864 4.207106,-0.84693 2.99349,-0.16136 3.60101,-0.27538 4.87486,-0.91489 0.80037,-0.40181 1.75287,-1.05174 2.11667,-1.44429 0.3638,-0.39255 1.0897,-0.93338 1.61311,-1.20185 1.29825,-0.66588 3.48926,-3.12178 4.34438,-4.86958 1.35406,-2.7676 1.50592,-7.54851 0.39125,-12.31789 -0.70194,-3.00344 -1.93129,-5.47635 -3.72025,-7.48352 -1.28273,-1.43919 -2.61605,-2.57299 -17.180569,-14.60953 -3.856302,-3.18696 -9.095052,-7.51728 -11.641666,-9.62293 -8.687787,-7.18345 -10.866289,-10.10172 -12.577881,-16.84901 -3.646633,-14.375453 1.330674,-24.929948 13.57804,-28.792562 2.676284,-0.844054 7.153926,-1.670305 10.365695,-1.912761 l 2.392479,-0.180609 v -0.872464 c 0,-0.479856 0.128709,-0.952012 0.286022,-1.049236 0.157311,-0.09722 0.220067,-0.43955 0.139457,-0.760726 -0.247291,-0.985282 0.461687,-1.648687 1.976723,-1.849664 1.53943,-0.204212 2.36029,0.251149 2.36029,1.309333 0,0.963027 0.56352,1.213387 2.28335,1.014453 2.03164,-0.235 2.76763,-0.705144 2.57916,-1.647527 -0.20346,-1.017268 0.52248,-1.54752 2.32001,-1.694618 1.15557,-0.09457 1.77579,-0.324637 2.73807,-1.015696 1.38619,-0.995485 1.75508,-1.583568 2.26555,-3.611681 0.45844,-1.821421 1.22935,-2.546432 2.64851,-2.490824 1.07729,0.04221 1.08115,0.0389 0.90251,-0.774447 -0.14755,-0.671797 -0.0485,-0.953492 0.55789,-1.58641 0.88817,-0.92705 1.86712,-0.995561 2.87682,-0.20133 0.59752,0.470005 0.6945,0.707747 0.561,1.375232 -0.25174,1.258712 -0.90745,2.097458 -1.51544,1.938465 -0.3825,-0.100026 -0.66058,0.08878 -1.03487,0.702621 -0.84498,1.38577 -0.69592,1.935925 0.57053,2.105792 3.35783,0.45038 3.22975,4.925807 -0.14204,4.963252 -0.59102,0.0066 -1.43178,0.167044 -1.86834,0.356623 -0.71305,0.309647 -0.47355,0.347154 2.35579,0.368929 2.49373,0.01919 3.23655,0.111248 3.56739,0.442092 0.60371,0.603713 0.0875,1.281513 -1.1866,1.558026 -1.70693,0.37045 -2.7522,0.916798 -2.7522,1.438532 0,0.264292 -0.13302,0.613552 -0.2956,0.776132 -0.35642,0.356417 -0.0449,8.276899 0.32555,8.276899 0.12905,0 0.23463,-0.687882 0.23463,-1.528627 0,-1.84269 0.49767,-2.704706 1.5615,-2.704706 1.21022,0 1.6135,0.710693 1.6135,2.843464 0,2.729987 -0.0145,2.712786 2.28657,2.712786 1.34717,0 2.16644,-0.131739 2.60458,-0.418817 1.03761,-0.679873 2.2255,0.02125 1.82117,1.07492 -0.0826,0.215337 -0.55515,0.641768 -1.05003,0.947621 -0.72283,0.446731 -0.89979,0.724173 -0.89979,1.410674 0,1.462437 -0.95682,2.167057 -3.175,2.338139 -1.19794,0.09239 -1.33375,0.820031 -0.44353,2.37642 0.54123,0.94625 0.65285,1.5079 0.67247,3.38354 0.0295,2.81969 0.29714,7.3921 0.46823,7.99888 0.0711,0.25204 -0.17579,1.0655 -0.54856,1.80768 -0.53472,1.06461 -0.67955,1.74969 -0.68619,3.24591 -0.006,1.24657 -0.14154,2.0725 -0.39688,2.41008 -0.21365,0.28248 -0.38846,1.06339 -0.38846,1.73537 0,0.68172 -0.17551,1.4488 -0.39705,1.73537 -0.38964,0.50401 -0.40692,0.50193 -0.92604,-0.11103 -0.34573,-0.40824 -0.52899,-1.00942 -0.52899,-1.73537 0,-0.61091 -0.17481,-1.34186 -0.38846,-1.62434 -0.24476,-0.3236 -0.39157,-1.13894 -0.39688,-2.20412 -0.007,-1.40658 -0.14173,-1.9072 -0.80216,-2.98053 -0.82522,-1.34116 -0.97111,-1.93497 -0.54072,-2.20096 0.13916,-0.086 0.20738,-0.3014 0.15159,-0.47864 -0.0558,-0.17724 -0.17589,-2.10353 -0.26691,-4.28063 -0.091,-2.17711 -0.29025,-4.1087 -0.44274,-4.29244 -0.20048,-0.24157 -0.0867,-0.6749 0.41077,-1.56505 0.94226,-1.6859 0.91079,-2.62305 -0.10574,-3.148718 -0.43656,-0.225756 -0.79375,-0.542912 -0.79375,-0.704792 0,-0.203213 -0.52004,-0.241046 -1.67993,-0.122211 -1.40202,0.143642 -1.78502,0.09122 -2.31511,-0.316884 -0.52474,-0.403987 -0.91934,-0.460676 -2.26979,-0.326088 -0.99314,0.09898 -1.83552,0.34471 -2.14653,0.626173 -0.72533,0.656413 -3.10116,0.905412 -3.69739,0.387506 -0.25242,-0.21927 -0.77185,-0.472818 -1.15427,-0.563438 -0.4058,-0.09616 -1.17698,-0.766754 -1.85209,-1.610519 -1.13077,-1.413264 -1.18777,-1.446035 -2.53662,-1.458272 -1.16062,-0.01053 -1.53057,-0.144846 -2.328427,-0.845378 l -0.948576,-0.832861 -2.698652,0.161073 c -8.052908,0.48065 -12.953671,4.163936 -13.585676,10.210639 -0.287843,2.75395 0.799033,8.73764 2.022826,11.13647 1.223426,2.39811 2.410283,3.42213 28.311065,24.42677 7.03734,5.70704 8.63353,7.15223 10.57376,9.57348 2.78789,3.47905 4.339,6.97848 5.28636,11.92646 2.58304,13.49104 -1.38693,22.02008 -12.29737,26.41953 -1.2389,0.49956 -2.59431,1.19587 -3.012,1.54734 -0.58551,0.49267 -1.20468,0.68041 -2.70333,0.8197 -1.60951,0.14958 -2.24921,0.36206 -3.71897,1.23522 -0.9763,0.58001 -1.84756,1.17182 -1.93613,1.31514 -0.15456,0.25008 -1.05566,0.2762 -3.04023,0.0881 z m 1.32291,-1.65133 c 0,-0.33666 -0.69119,-0.55747 -1.74502,-0.55747 -0.49939,0 -1.12555,-0.13587 -1.391455,-0.30193 -0.455835,-0.28467 -2.643857,-0.0985 -2.345764,0.19955 0.582234,0.58223 5.482239,1.17201 5.482239,0.65985 z m 6.08542,-2.01268 c 0.18374,-0.22139 0.21239,-0.39687 0.0648,-0.39687 -0.14552,0 -0.4128,0.17859 -0.59396,0.39687 -0.18373,0.22139 -0.21238,0.39688 -0.0648,0.39688 0.14552,0 0.4128,-0.1786 0.59396,-0.39688 z m -17.515415,-1.24354 c 0.174625,-0.17463 0.3175,-0.65088 0.3175,-1.05833 0,-0.59075 -0.12061,-0.74162 -0.595313,-0.74469 -0.654809,-0.004 -2.019606,-0.44851 -4.006199,-1.30412 -0.711819,-0.30658 -1.366662,-0.48392 -1.455208,-0.39409 -0.206965,0.20995 3.017951,3.25305 3.768183,3.55573 0.822478,0.33182 1.606388,0.31015 1.971037,-0.0545 z m 12.699995,0 c 0.88464,-0.88463 -0.23933,-2.32833 -1.81267,-2.32833 -0.68172,0 -1.27039,0.23708 -1.97087,0.79375 -1.280197,1.01737 -2.213909,1.01336 -4.040243,-0.0174 -1.476015,-0.83301 -2.00551,-0.8644 -1.35527,-0.0804 1.098471,1.32453 8.220343,2.591 9.179053,1.63229 z M 77.434084,185.139 c 0.19407,-0.50573 -0.414279,-1.71126 -0.965213,-1.91271 -0.635688,-0.23243 -1.647139,-1.38377 -2.650122,-3.01663 -0.684493,-1.11436 -1.374629,-1.79763 -2.645833,-2.6195 -2.125877,-1.37445 -3.377319,-1.52332 -3.894685,-0.46331 -0.188246,0.38569 -0.27958,0.86461 -0.202965,1.06426 0.07661,0.19965 1.091983,0.93393 2.256378,1.63173 2.311503,1.38523 2.651683,1.77116 3.302341,3.74651 0.239665,0.7276 0.627038,1.47174 0.860829,1.65364 0.647523,0.50381 3.739005,0.43789 3.93927,-0.084 z m 33.960806,-2.10521 c 0.18407,-0.2218 0.26106,-0.47689 0.17108,-0.56687 -0.19216,-0.19217 -0.97014,0.39961 -0.97014,0.73795 0,0.36445 0.43123,0.27212 0.79906,-0.17108 z m -30.122495,-0.82837 c 0.734512,-0.66472 0.59446,-0.99043 -0.695323,-1.61706 -0.729162,-0.35425 -1.355169,-0.90449 -1.640334,-1.44178 -0.371758,-0.70045 -0.481314,-0.77401 -0.565105,-0.37946 -0.161216,0.75912 0.158533,2.07012 0.735663,3.01629 0.58801,0.964 1.392857,1.12088 2.165099,0.42201 z m -8.771255,-9.49038 c 0.420886,-0.50714 0.433652,-0.49902 -1.411017,-0.89745 -1.673347,-0.36142 -3.089775,-1.38422 -3.788712,-2.73581 -0.501563,-0.96991 -0.331451,-1.65957 0.693687,-2.81235 0.438113,-0.49266 0.796568,-0.99868 0.796568,-1.12448 0,-0.1258 0.178594,-0.22873 0.396875,-0.22873 0.244385,0 0.396875,-0.24815 0.396875,-0.64584 0,-0.35521 0.115163,-0.71702 0.255918,-0.80401 0.140753,-0.087 0.185402,-0.51074 0.09922,-0.94166 -0.08976,-0.44879 -0.04411,-0.78349 0.10687,-0.78349 0.144963,0 0.341353,-0.58636 0.436423,-1.30302 0.09507,-0.71667 0.30617,-1.34747 0.469114,-1.40178 0.214326,-0.0714 0.20284,-0.38183 -0.04153,-1.12229 -0.300718,-0.91118 -0.286256,-1.06121 0.131746,-1.36686 0.388991,-0.28444 0.44477,-0.60596 0.325147,-1.87418 -0.07941,-0.84195 -0.407091,-2.12614 -0.728163,-2.85374 -0.648406,-1.46939 -0.716269,-1.41693 -1.285586,0.99386 -0.494562,2.09424 -1.334011,3.55673 -3.256217,5.67299 -2.24551,2.47221 -2.979872,3.69429 -3.544636,5.89877 -0.749157,2.92426 -0.01873,5.535 2.031172,7.25987 0.776364,0.65327 0.871252,0.67239 1.451089,0.29247 0.852569,-0.55863 1.140658,-0.52222 3.06266,0.38704 1.859267,0.87957 2.897794,0.99882 3.402502,0.39069 z m 41.00511,-78.44257 c 0,-0.145521 -0.11907,-0.264584 -0.26459,-0.264584 -0.14552,0 -0.26458,0.119063 -0.26458,0.264584 0,0.145521 0.11906,0.264583 0.26458,0.264583 0.14552,0 0.26459,-0.119062 0.26459,-0.264583 z m 0.26419,-0.925576 c 0.24901,-0.30004 0.28257,-1.325089 0.13803,-4.216455 -0.16257,-3.252088 -0.26494,-3.886992 -0.6885,-4.270315 -0.40254,-0.364293 -0.57309,-0.387571 -0.8932,-0.121908 -0.33129,0.274948 -0.37005,0.937225 -0.23826,4.071412 0.18409,4.378063 0.68735,5.735672 1.68193,4.537266 z m -8.63176,-7.842352 c -0.42145,-0.465699 -0.42796,-0.581221 -0.0693,-1.230817 0.21768,-0.394284 0.35041,-0.991413 0.29496,-1.326952 -0.087,-0.526644 -0.23373,-0.599008 -1.07268,-0.529167 -0.94062,0.07831 -0.97448,0.117303 -1.05362,1.213732 -0.0666,0.922686 0.0613,1.315332 0.68932,2.116667 0.4241,0.541112 0.93714,1.281496 1.1401,1.645298 l 0.36902,0.661458 0.0837,-1.018141 c 0.0569,-0.692239 -0.0652,-1.182651 -0.38144,-1.532078 z M 117.475,76.545386 c 0,-0.145521 -0.30469,-0.264583 -0.67708,-0.264583 -0.384,0 -0.60629,0.114522 -0.51355,0.264583 0.0899,0.145521 0.39462,0.264583 0.67708,0.264583 0.28245,0 0.51355,-0.119062 0.51355,-0.264583 z m 0.26458,-3.820844 c 0,-0.209693 -0.11084,-0.44976 -0.2463,-0.533482 -0.31456,-0.194409 -0.63093,0.301038 -0.41516,0.650159 0.2433,0.393666 0.66146,0.319906 0.66146,-0.116677 z"
         id="path838"
         inkscape:connector-curvature="0" />
      <path
         style="fill:#8f8f8f;stroke-width:0.26458332"
         d="m 102.52604,192.14976 c -0.43656,-0.13071 -0.97331,-0.18112 -1.19278,-0.11204 -0.57289,0.18036 -4.837273,-1.02624 -4.963313,-1.40436 -0.147928,-0.44379 1.653265,-0.391 2.981092,0.0874 0.582084,0.2097 1.742941,0.38307 2.579691,0.38526 0.83674,0.002 1.52135,0.12304 1.52135,0.26857 0,0.14552 0.26789,0.26836 0.59531,0.27299 0.58042,0.008 0.58247,0.0181 0.0817,0.39688 -0.57472,0.43469 -0.5159,0.43083 -1.60308,0.10533 z m -12.348988,-0.82642 c -0.634992,-0.49464 -0.829601,-0.52019 -1.9031,-0.24989 -0.65768,0.16561 -1.404993,0.30111 -1.6607,0.30111 -0.740799,0 -0.02122,-0.55688 0.985682,-0.76281 1.282758,-0.26235 1.211945,-0.67749 -0.245565,-1.4396 -0.922719,-0.48248 -1.834677,-0.71242 -3.119761,-0.78661 -2.231882,-0.12887 -2.557681,-0.0367 -2.204293,0.62362 0.228182,0.42636 0.04191,0.39312 -1.393907,-0.2487 -1.148744,-0.5135 -1.657678,-0.88785 -1.658567,-1.21996 -0.0016,-0.57376 -0.701622,-0.88459 -2.049238,-0.90985 -0.821997,-0.0154 -0.992187,0.0722 -0.992187,0.51057 0,0.67666 -0.215781,0.66726 -0.971061,-0.0423 -0.33456,-0.3143 -1.233913,-0.82086 -1.998564,-1.12568 -1.298663,-0.5177 -1.451488,-0.67819 -2.319179,-2.43554 -0.510897,-1.03473 -1.393685,-2.31566 -1.961748,-2.84651 -0.568065,-0.53086 -0.959855,-1.03818 -0.870645,-1.12739 0.209028,-0.20903 2.778741,1.11646 3.565411,1.83909 0.331975,0.30495 0.781502,1.16644 0.99895,1.91444 0.604321,2.07879 0.86478,2.31243 2.728145,2.44721 1.595615,0.11542 3.209941,-0.27732 3.209941,-0.78091 0,-0.27585 -1.313276,-1.57997 -2.736139,-2.71707 -0.532415,-0.42548 -0.968028,-0.86405 -0.968028,-0.9746 0,-0.11055 -0.37203,-0.79948 -0.826735,-1.53095 -0.617078,-0.99266 -1.283671,-1.60139 -2.628522,-2.40036 -1.858526,-1.10413 -2.597158,-1.3005 -3.622347,-0.96306 -0.541102,0.17811 -0.595312,0.11183 -0.595312,-0.7278 0,-0.96375 -0.33814,-1.33977 -2.370093,-2.63556 -1.178446,-0.75151 -2.560491,-2.56853 -2.909506,-3.82522 -0.635484,-2.28818 -0.117467,-5.83341 1.208275,-8.26923 0.370571,-0.68086 1.207183,-1.8804 1.85914,-2.66564 0.651957,-0.78525 1.718842,-2.51459 2.370852,-3.84299 1.02807,-2.09457 1.206407,-2.71191 1.343144,-4.64947 0.286678,-4.06227 -1.050116,-6.26428 -3.816916,-6.28734 C 63.690542,143.48634 63.5,143.39784 63.5,142.9708 c 0,-1.43326 3.201471,-1.85319 5.008993,-0.65703 2.373111,1.57045 5.817349,7.18706 8.343887,13.60661 1.839467,4.6738 2.466821,8.30746 1.968507,11.4017 -0.331459,2.05818 -0.771345,2.90446 -2.4107,4.63783 -1.640033,1.7341 -1.64351,2.40382 -0.01529,2.94463 1.132139,0.37605 1.945081,1.23297 2.321499,2.44709 0.392644,1.26646 1.465744,2.36477 2.606061,2.6673 1.344454,0.35668 2.285373,1.18724 2.285373,2.01733 0,0.351 0.202424,0.70003 0.46302,0.79836 0.254662,0.0961 0.99857,0.76778 1.653128,1.49263 1.997027,2.21148 3.606379,3.34313 4.754379,3.34313 1.178042,0 1.667214,-0.47535 1.549112,-1.50536 -0.0738,-0.64364 -0.227534,-0.7655 -1.143598,-0.90653 -1.32139,-0.20342 -2.905961,-0.791 -4.105987,-1.52254 -1.125788,-0.68629 -0.839319,-0.70068 1.038966,-0.0522 1.281007,0.44228 1.540859,0.45524 2.480659,0.12365 0.577371,-0.2037 1.544087,-0.37037 2.148255,-0.37037 1.248463,0 2.561572,0.71743 1.975763,1.07948 -0.610835,0.37751 0.59644,1.63934 2.175087,2.27337 0.787053,0.3161 2.638827,0.72499 4.115046,0.90863 2.43296,0.30266 2.74854,0.29164 3.37344,-0.11781 0.89132,-0.58402 0.87044,-1.09292 -0.084,-2.04736 -0.96603,-0.96603 -2.00621,-1.00435 -3.22237,-0.11869 -1.967269,1.43264 -2.964033,1.40791 -4.749405,-0.11784 l -0.912111,-0.77948 0.924295,0.2536 c 1.575848,0.43236 2.74084,0.30414 3.705913,-0.40786 0.833878,-0.61522 1.110298,-0.66164 3.954008,-0.66405 2.67202,-0.002 3.23002,-0.0829 4.42646,-0.63999 0.75296,-0.35058 1.76499,-1.01655 2.24896,-1.47994 0.48397,-0.46339 1.30819,-1.06147 1.8316,-1.32908 1.30548,-0.66745 3.54977,-3.18754 4.48027,-5.03086 0.64112,-1.27004 0.81074,-2.03074 1.00919,-4.52574 0.46735,-5.87589 -0.90127,-11.15758 -3.85649,-14.88281 -1.23949,-1.56245 -2.20007,-2.39304 -15.019555,-12.98712 -21.744873,-17.97004 -20.501122,-16.88177 -22.877631,-20.01772 -3.615023,-4.77025 -5.271066,-11.04308 -4.968901,-18.82143 0.223922,-5.764262 1.716828,-9.397237 5.349991,-13.019182 3.416374,-3.405823 6.95181,-5.136372 12.991864,-6.359345 1.859415,-0.376489 4.401341,-0.744292 5.648724,-0.81734 3.408579,-0.19961 3.548099,-0.247137 3.368064,-1.147317 -0.09775,-0.488797 -0.01862,-0.86832 0.222826,-1.068707 0.239282,-0.198584 0.320556,-0.580029 0.225193,-1.056858 -0.210336,-1.051677 0.744603,-1.647865 2.463895,-1.538261 1.20381,0.07674 1.28497,0.128625 1.36922,0.875328 0.15247,1.351383 0.48835,1.538961 2.45972,1.373689 2.21349,-0.185571 2.87468,-0.569569 2.87468,-1.66952 0,-1.101901 0.45842,-1.427586 2.27304,-1.614871 1.17639,-0.121414 1.79923,-0.367045 2.78137,-1.09689 1.28283,-0.953298 1.83094,-1.871872 2.35795,-3.951677 0.41703,-1.645791 1.1285,-2.264067 2.40789,-2.092466 1.14202,0.153178 1.44774,-0.08521 1.05364,-0.821598 -0.30512,-0.570128 0.57195,-2.051854 1.37032,-2.315031 0.65333,-0.215361 2.15825,0.7192 2.25778,1.402082 0.13517,0.927443 -0.66565,2.187323 -1.39033,2.187323 -0.7611,0 -1.81715,1.529045 -1.68739,2.443155 0.0696,0.490192 0.29808,0.627974 1.25272,0.755365 3.4743,0.463622 2.94962,4.73898 -0.58158,4.73898 -1.01915,0 -2.57041,0.474596 -2.57041,0.786397 0,0.113006 1.45851,0.180517 3.24114,0.150024 1.78263,-0.03049 3.38998,-0.0028 3.57188,0.06154 0.1819,0.06434 0.33073,0.399633 0.33073,0.745094 0,0.473729 -0.17884,0.663689 -0.72761,0.772866 -0.40018,0.07962 -1.35268,0.339348 -2.11666,0.577182 -1.23481,0.384403 -1.38907,0.513353 -1.38907,1.161152 0,0.4008 -0.12171,0.769298 -0.27047,0.818884 -0.26782,0.08927 0.0874,8.061155 0.37189,8.345633 0.39488,0.39488 0.69233,-0.429567 0.69233,-1.918915 0,-1.510274 0.0717,-1.745073 0.64851,-2.122994 1.39411,-0.913455 2.26191,0.266833 2.26191,3.076394 0,2.330564 0.0308,2.363406 2.21839,2.363406 1.2945,0 2.0853,-0.131754 2.48932,-0.414742 0.80109,-0.561099 1.75318,-0.396825 1.8554,0.320133 0.0562,0.394168 -0.1856,0.752985 -0.79375,1.177877 -1.11163,0.776655 -1.26243,1.001927 -1.26739,1.893295 -0.006,0.987004 -0.86279,1.785099 -1.92228,1.789549 -1.60974,0.0068 -2.05052,0.249343 -2.05052,1.12848 0,0.443186 0.30734,1.330236 0.68297,1.971206 0.4359,0.7438 0.61214,1.32653 0.48717,1.61075 -0.1077,0.24493 -0.18356,0.5147 -0.16858,0.59949 0.015,0.0848 0.0972,1.75166 0.18265,3.70417 0.0855,1.9525 0.21736,4.04864 0.29309,4.65807 0.0999,0.80404 -0.0113,1.40006 -0.40522,2.17227 -0.3853,0.75526 -0.54292,1.57159 -0.54292,2.81193 0,0.96125 -0.14211,2.0078 -0.3158,2.32565 -0.1737,0.31785 -0.40029,1.27481 -0.50355,2.12657 -0.21547,1.77744 -0.54112,2.27643 -1.15381,1.76795 -0.25337,-0.21028 -0.40809,-0.77538 -0.40809,-1.49052 0,-0.68542 -0.21387,-1.50262 -0.52817,-2.01812 -0.37889,-0.62143 -0.52846,-1.33435 -0.52917,-2.52223 -7.9e-4,-1.41596 -0.11503,-1.81336 -0.78787,-2.7422 -0.61409,-0.84772 -0.72933,-1.19383 -0.52475,-1.57607 0.32835,-0.61353 0.0599,-8.28636 -0.32532,-9.29954 -0.22332,-0.58731 -0.17038,-0.89799 0.28439,-1.66877 0.31566,-0.53499 0.55881,-1.40389 0.55881,-1.99687 0,-0.879131 -0.10861,-1.091054 -0.66824,-1.303821 -0.36753,-0.139737 -0.73536,-0.428972 -0.81739,-0.642747 -0.11894,-0.309952 -0.49329,-0.356547 -1.84805,-0.23004 -1.4073,0.131416 -1.7885,0.07757 -2.22088,-0.313737 -0.44119,-0.399272 -0.79797,-0.444109 -2.30518,-0.28969 -1.25765,0.12885 -1.92482,0.334703 -2.26371,0.698453 -0.59386,0.637439 -2.96266,0.707189 -3.7516,0.110466 -0.28247,-0.213654 -0.71718,-0.388461 -0.96601,-0.388461 -0.24883,0 -1.07366,-0.717117 -1.83296,-1.593589 -1.26362,-1.45861 -1.45096,-1.58038 -2.21175,-1.437655 -1.02706,0.192677 -1.91527,-0.13226 -2.919695,-1.068137 -0.752633,-0.701262 -0.825478,-0.714205 -3.042708,-0.540694 -6.782858,0.530807 -11.102278,2.754349 -13.053403,6.719612 -0.837253,1.70155 -0.859801,1.83815 -0.857009,5.19181 0.0047,5.65643 1.190572,9.50858 3.805936,12.3632 0.761185,0.83081 5.097163,4.52679 9.635502,8.21327 4.538337,3.68648 11.706217,9.51274 15.928617,12.94724 7.78588,6.33304 10.86288,9.2286 12.60111,11.85813 3.32294,5.02679 4.57852,9.77001 4.58717,17.32911 0.006,5.15964 -0.32487,6.90437 -1.90491,10.04749 -2.07425,4.12626 -6.00978,7.33679 -11.52136,9.39891 -0.83902,0.31391 -1.85105,0.84122 -2.24896,1.17178 -0.83716,0.69548 -4.42664,1.21039 -4.22782,0.60648 0.0584,-0.17742 0.36477,-0.36062 0.6808,-0.40712 0.73929,-0.10879 0.739,-0.4722 -5.3e-4,-0.6656 -0.45267,-0.11837 -0.89621,0.18494 -2.08291,1.42435 -1.42218,1.48536 -2.33583,2.03017 -2.0187,1.20375 0.22201,-0.57856 -0.10095,-0.70669 -0.70855,-0.28111 -0.6953,0.48698 -1.22931,0.49729 -1.22931,0.0237 0,-0.37992 -1.10155,-0.69453 -2.43172,-0.69453 -0.42794,0 -0.98127,-0.10876 -1.229633,-0.24167 -0.646697,-0.34611 -2.932978,0.13406 -3.850539,0.80869 -0.811483,0.59664 -3.639074,1.55419 -4.526645,1.53292 -0.291042,-0.007 -0.84746,-0.26062 -1.236488,-0.56366 z m 18.963568,-7.09253 c 0.10214,-0.16527 -0.43822,-0.26459 -1.43959,-0.26459 -0.89236,0 -1.60312,0.11731 -1.60312,0.26459 0,0.14552 0.64782,0.26458 1.4396,0.26458 0.79177,0 1.51318,-0.11906 1.60311,-0.26458 z m 1.59993,-0.52917 c 0.42185,0 2.23653,-1.52499 2.23653,-1.87949 0,-0.74128 -1.99619,0.26026 -2.95943,1.48483 -0.50789,0.64568 -0.5263,0.73356 -0.12104,0.57805 0.26285,-0.10087 0.64263,-0.18339 0.84394,-0.18339 z M 81.3614,182.3118 c 0.875311,-0.75291 0.687507,-1.30824 -0.645752,-1.90946 -0.634452,-0.28609 -1.194393,-0.80642 -1.507342,-1.40069 -0.273849,-0.52003 -0.664519,-1.00104 -0.868153,-1.06892 -0.919729,-0.30658 0.418581,4.41969 1.3585,4.79757 0.642369,0.25826 0.972598,0.17514 1.662747,-0.4185 z m -8.718658,-9.47423 c 0.422355,-0.4667 0.437804,-0.58056 0.107154,-0.7897 -0.212495,-0.13441 -0.658069,-0.2462 -0.990166,-0.24843 -1.469554,-0.01 -3.448156,-1.28894 -4.1852,-2.70554 -0.335695,-0.64522 -0.316971,-0.81765 0.186759,-1.71979 0.307927,-0.55148 0.725262,-1.09789 0.927412,-1.21426 0.202152,-0.11638 0.367548,-0.38427 0.367548,-0.59532 0,-0.21105 0.178594,-0.38373 0.396875,-0.38373 0.246944,0 0.396875,-0.24988 0.396875,-0.66145 0,-0.36381 0.124458,-0.66146 0.276572,-0.66146 0.172786,0 0.211381,-0.34751 0.102846,-0.92604 -0.102076,-0.54413 -0.06729,-0.92605 0.08434,-0.92605 0.141936,0 0.333936,-0.55353 0.426665,-1.23007 0.09273,-0.67654 0.301998,-1.39081 0.465037,-1.58726 0.219559,-0.26456 0.213757,-0.55679 -0.02238,-1.12686 -0.266615,-0.64367 -0.246004,-0.8808 0.125891,-1.44839 0.349695,-0.5337 0.403813,-0.97698 0.253302,-2.07483 -0.209024,-1.52474 -1.268669,-4.17425 -1.669439,-4.17425 -0.13798,0 -0.378444,0.72424 -0.534366,1.60942 -0.425145,2.41359 -1.356225,4.17061 -3.395651,6.40788 -3.861279,4.23586 -4.861298,7.98187 -3.039377,11.38531 1.055134,1.97105 2.811692,3.17181 3.354689,2.29322 0.268803,-0.43493 1.404061,-0.30148 2.590228,0.30449 2.199359,1.12358 3.085232,1.23462 3.774389,0.47311 z M 113.66084,94.367482 c -0.0916,-0.238787 0.0166,-0.713791 0.24056,-1.055564 0.58267,-0.889261 0.19753,-7.763355 -0.4767,-8.508373 -0.24619,-0.27204 -0.44762,-0.63407 -0.44762,-0.804513 0,-0.56157 -0.39014,-0.311561 -0.79375,0.508647 -0.52983,1.07672 -0.1919,8.320454 0.41969,8.996256 0.21275,0.235082 0.31168,0.623236 0.21984,0.862562 -0.12397,0.323049 -0.0161,0.435139 0.4188,0.435139 0.43435,0 0.54272,-0.112236 0.41918,-0.434154 z M 101.86458,91.89122 c 0,-0.145521 -0.11906,-0.264584 -0.26458,-0.264584 -0.14552,0 -0.26459,0.119063 -0.26459,0.264584 0,0.145521 0.11907,0.264583 0.26459,0.264583 0.14552,0 0.26458,-0.119062 0.26458,-0.264583 z m 3.96875,-4.52324 c 0,-0.596011 -0.20135,-1.424517 -0.44745,-1.841126 -0.3774,-0.638893 -0.39442,-0.85655 -0.10871,-1.390399 0.53525,-1.000137 0.28696,-1.887793 -0.55523,-1.984985 -0.39299,-0.04535 -0.9443,0.04051 -1.22513,0.190813 -0.79839,0.427281 -0.46687,2.458773 0.63729,3.905305 0.47655,0.624321 0.94279,1.375636 1.03609,1.669589 0.287,0.90424 0.66314,0.592726 0.66314,-0.549197 z M 117.4403,76.719479 c 0.36396,-0.438536 0.12803,-0.70326 -0.62676,-0.70326 -0.3153,0 -0.65161,0.07834 -0.74736,0.174094 -0.2296,0.229602 0.3237,0.88424 0.74736,0.88424 0.18264,0 0.46469,-0.159783 0.62676,-0.355074 z m 0.56386,-4.018855 c 0,-0.544107 -0.7911,-0.820962 -1.06757,-0.373613 -0.29294,0.473975 -0.0761,0.778792 0.55402,0.778792 0.28478,0 0.51355,-0.180496 0.51355,-0.405179 z M 66.410416,177.63184 c 0,-0.13693 0.1177,-0.32171 0.261554,-0.41062 0.149982,-0.0927 0.194337,0.0135 0.103984,0.24897 -0.175892,0.45837 -0.365538,0.54223 -0.365538,0.16165 z"
         id="path836"
         inkscape:connector-curvature="0" />
      <path
         style="fill:#6e6e6e;stroke-width:0.26458332"
         d="m 102.52604,191.91441 c -0.29104,-0.11919 -0.83304,-0.16017 -1.20443,-0.0911 -0.67975,0.12644 -3.217105,-0.50092 -3.954945,-0.97787 -0.684266,-0.44231 1.140388,-0.31391 2.27481,0.16008 0.630275,0.26335 1.439855,0.37702 2.130635,0.29916 1.03033,-0.11614 1.67997,0.13597 1.67997,0.65195 0,0.25528 -0.22456,0.24504 -0.92604,-0.0422 z m -12.070638,-0.79583 c -0.422262,-0.42226 -1.510517,-1.22167 -2.418345,-1.77647 -1.493091,-0.91247 -1.855941,-1.01758 -3.802451,-1.10152 -1.274852,-0.055 -2.37916,0.0289 -2.70959,0.2057 -0.695576,0.37226 -2.01355,-0.22547 -2.217592,-1.00573 -0.0901,-0.34453 -0.562133,-0.64001 -1.422691,-0.89056 l -1.287859,-0.37496 1.345422,-0.48956 1.345422,-0.48955 -1.242142,-1.07787 c -0.683175,-0.59283 -1.641795,-1.41716 -2.130261,-1.83183 -0.488465,-0.41468 -1.329695,-1.47199 -1.869395,-2.3496 -0.808042,-1.31394 -1.323419,-1.79921 -2.919327,-2.74878 -1.302311,-0.77489 -2.245572,-1.15414 -2.875524,-1.15614 -0.828002,-0.003 -0.967033,-0.10326 -1.190624,-0.86171 -0.157959,-0.53582 -0.587603,-1.05816 -1.142564,-1.38907 -2.227537,-1.32823 -4.009683,-3.46688 -4.002899,-4.80365 0.0013,-0.28065 0.338021,0.0959 0.789609,0.88326 0.432916,0.75484 1.215654,1.69929 1.739413,2.09878 0.95073,0.72516 0.953741,0.72556 1.839608,0.24849 0.885201,-0.47671 0.891537,-0.47588 2.653435,0.34861 2.040903,0.95506 3.271654,1.05312 3.940571,0.31397 0.640845,-0.70812 0.364289,-0.99551 -1.159676,-1.20511 -2.249824,-0.30943 -4.779544,-2.39007 -3.709784,-3.05122 0.182298,-0.11267 0.26193,-0.38601 0.176961,-0.60744 -0.08806,-0.22948 0.122902,-0.7019 0.490612,-1.09867 0.354806,-0.38284 0.645102,-0.86854 0.645102,-1.07932 0,-0.21078 0.178593,-0.38324 0.396875,-0.38324 0.244385,0 0.396875,-0.24815 0.396875,-0.64584 0,-0.35522 0.128709,-0.7254 0.286022,-0.82262 0.157311,-0.0972 0.216406,-0.45414 0.131321,-0.79315 -0.08509,-0.33901 -0.02817,-0.69458 0.126476,-0.79016 0.154646,-0.0956 0.248055,-0.43029 0.207571,-0.74381 -0.04048,-0.31353 0.03112,-0.73841 0.159118,-0.94419 0.127997,-0.20578 0.243385,-1.11861 0.256418,-2.0285 0.01304,-0.90989 0.112995,-1.74363 0.222136,-1.85276 0.658778,-0.65871 -0.162557,-4.87625 -1.235321,-6.34334 -0.504349,-0.68974 -0.655344,-0.47067 -1.082381,1.57035 -0.556496,2.65976 -1.203195,3.84668 -3.417051,6.27148 -1.27009,1.39111 -2.374503,2.9233 -2.940757,4.07983 -0.498747,1.01865 -0.908796,1.67013 -0.911222,1.44774 -0.0082,-0.75198 1.76693,-4.08454 2.955639,-5.54878 4.112366,-5.06558 5.090694,-11.22049 2.225,-13.99803 -0.733544,-0.71098 -1.195022,-0.91969 -2.259674,-1.022 C 64.102046,143.21091 63.5,143.0676 63.5,142.96315 c 0,-0.48808 1.151231,-1.14115 2.224958,-1.26217 2.211697,-0.2493 4.25097,1.48832 6.90669,5.88503 2.723462,4.50887 5.316802,10.90697 5.950445,14.68052 0.430424,2.56332 0.191394,5.78968 -0.541031,7.30266 -0.303022,0.62596 -1.138877,1.75455 -1.857462,2.50798 -0.718584,0.75342 -1.306518,1.56975 -1.306518,1.81404 0,0.62808 0.528315,1.07918 1.263894,1.07918 0.345892,0 0.976923,0.34803 1.402291,0.7734 0.760349,0.76035 1.028547,1.60785 0.508815,1.60785 -0.695198,0 0.05546,3.67961 0.973143,4.77022 1.239446,1.473 3.253705,0.71138 2.859947,-1.08138 -0.147053,-0.66954 -0.111085,-0.802 0.173514,-0.63899 0.881465,0.50488 1.285063,1.05565 1.285063,1.75366 0,0.42973 0.143322,0.75274 0.333996,0.75274 0.183698,0 1.344557,0.96988 2.579688,2.15529 3.053008,2.93011 4.795509,3.60542 5.70834,2.21226 0.603491,-0.92104 0.311298,-1.9863 -0.544825,-1.9863 -0.729199,0 -1.991783,-0.51367 -1.991783,-0.81034 0,-0.34899 1.631624,-0.77716 2.961497,-0.77716 0.900052,0 1.271921,0.10087 1.219258,0.33073 -0.146296,0.63851 1.389753,2.25607 2.662192,2.80346 2.334184,1.00414 7.295178,1.50749 8.119008,0.82377 1.05396,-0.87471 -0.0457,-2.78879 -1.76099,-3.06533 -0.74534,-0.12015 -1.10862,0.0165 -2.13874,0.80423 -0.682492,0.52193 -1.515929,0.94853 -1.852082,0.94798 -0.542513,-7.9e-4 -2.330977,-0.88571 -2.330977,-1.15324 0,-0.057 0.534236,-0.0435 1.187191,0.0301 0.994997,0.11215 1.334804,0.0212 2.099013,-0.56167 0.782215,-0.59662 1.173005,-0.69548 2.749245,-0.69548 1.03472,0 2.25239,0.17338 2.78728,0.39688 0.52242,0.21828 1.46382,0.39687 2.09201,0.39687 2.84162,0 7.61365,-2.74411 6.57619,-3.78157 -0.34474,-0.34473 -2.51504,0.72868 -3.77527,1.86722 -0.67097,0.60619 -1.18812,0.86363 -1.599,0.796 -0.56683,-0.0933 -0.54684,-0.1343 0.29995,-0.61529 0.49897,-0.28342 1.28533,-0.8725 1.74747,-1.30907 0.46213,-0.43656 1.36913,-1.10362 2.01556,-1.48236 1.43747,-0.8422 3.38156,-3.071 4.33569,-4.97062 1.85561,-3.69444 1.36199,-11.84636 -1.00775,-16.64243 -1.03269,-2.09004 -3.69558,-4.99796 -7.22291,-7.88753 -1.4032,-1.14948 -4.05725,-3.34013 -5.8979,-4.8681 -1.84065,-1.52797 -7.394183,-6.11115 -12.341182,-10.18485 -4.946999,-4.07371 -10.046996,-8.41949 -11.333323,-9.6573 -4.882965,-4.69877 -7.07952,-9.53266 -7.875714,-17.33181 -0.53666,-5.25686 0.15054,-9.751884 2.054852,-13.440959 1.318344,-2.553925 5.029279,-6.269254 7.633414,-7.642454 3.675488,-1.93814 9.354197,-3.375009 15.210601,-3.848697 l 2.513541,-0.203306 -0.0776,-0.992187 c -0.04885,-0.624628 0.03691,-0.992188 0.231511,-0.992188 0.201443,0 0.254526,-0.2729 0.152405,-0.783513 -0.200578,-1.002881 0.261398,-1.472806 1.669195,-1.697922 1.40961,-0.225405 2.22138,0.186087 2.05757,1.042995 -0.21324,1.115471 0.58651,1.537926 2.50133,1.321289 2.21123,-0.250173 3.18969,-0.828434 2.98427,-1.763687 -0.23445,-1.067481 0.4342,-1.558745 2.12158,-1.558745 1.09812,0 1.58392,-0.13967 2.16392,-0.62215 0.41134,-0.342182 1.01599,-0.763195 1.34365,-0.935584 0.64151,-0.337511 1.23702,-1.549113 1.70139,-3.461576 0.42415,-1.746863 0.85198,-2.12444 2.40715,-2.12444 h 1.31498 l -0.16415,-0.820756 c -0.19539,-0.976939 0.63915,-2.354244 1.42649,-2.354244 0.79922,0 1.82313,0.567829 1.99385,1.105725 0.24186,0.762043 -0.7104,2.189665 -1.46488,2.196138 -0.48152,0.0041 -0.78164,0.294103 -1.25562,1.213171 -0.74717,1.448809 -0.59284,2.099549 0.49795,2.099549 2.37294,0 3.56018,2.42121 1.91364,3.902605 -0.45518,0.409525 -1.00801,0.599926 -1.77141,0.610095 -1.25957,0.01678 -3.41036,0.80171 -3.57844,1.305951 -0.0875,0.262573 0.28402,0.290072 1.70759,0.126386 1.00071,-0.115063 2.05759,-0.194382 2.34863,-0.176264 0.29104,0.01812 1.2161,0.03356 2.05568,0.03432 1.15362,0.001 1.56615,0.104667 1.68878,0.42422 0.2269,0.591301 -0.18055,0.91082 -1.38605,1.086925 -0.56952,0.0832 -1.54562,0.389144 -2.16911,0.679878 -0.93667,0.43677 -1.07852,0.594997 -0.81648,0.910736 0.24896,0.29998 0.23671,0.462457 -0.057,0.755792 -0.31377,0.313366 -0.33145,1.047268 -0.10956,4.547953 0.2308,3.64138 0.32369,4.18557 0.7276,4.262664 0.40487,0.07728 0.46302,-0.141509 0.46302,-1.742098 0,-1.982873 0.40974,-2.706241 1.53288,-2.706241 0.80559,0 1.11296,0.767233 1.11296,2.778125 0,2.611205 0.15237,2.778125 2.53599,2.778125 1.2998,0 2.26987,-0.145655 2.80171,-0.420679 0.74876,-0.387199 0.84773,-0.385535 1.24363,0.02093 0.39864,0.40929 0.34783,0.513223 -0.69435,1.420083 -0.78617,0.684085 -1.12448,1.186389 -1.12448,1.669547 0,1.223134 -0.77519,1.847771 -2.52653,2.035834 -1.47125,0.157988 -1.57999,0.216691 -1.65808,0.895024 -0.0488,0.42363 0.21332,1.27141 0.62931,2.03572 0.48063,0.88308 0.64501,1.46542 0.50457,1.78759 -0.11456,0.2628 -0.17484,0.59689 -0.13395,0.74241 0.0878,0.31243 0.24243,2.8116 0.36841,5.95313 0.0496,1.23692 0.17947,2.4546 0.28859,2.70594 0.12812,0.29509 -0.0451,0.89275 -0.48904,1.68697 -0.56225,1.00598 -0.68745,1.57611 -0.68745,3.13047 0,1.26142 -0.13063,2.07318 -0.38846,2.41407 -0.22224,0.29382 -0.39206,1.10131 -0.39688,1.88704 -0.005,0.75539 -0.14554,1.45819 -0.31313,1.56178 -0.47825,0.29557 -1.01737,-0.6819 -1.02661,-1.86132 -0.005,-0.59065 -0.18322,-1.30502 -0.39688,-1.5875 -0.2506,-0.33133 -0.38846,-1.1344 -0.38846,-2.26298 0,-1.54835 -0.0964,-1.88045 -0.83868,-2.88982 -0.68001,-0.92467 -0.78325,-1.22917 -0.5457,-1.60955 0.1769,-0.28326 0.24586,-1.24102 0.17406,-2.41742 -0.0654,-1.07157 -0.15927,-2.99219 -0.20859,-4.26806 -0.0493,-1.27586 -0.16697,-2.39703 -0.26143,-2.49149 -0.32681,-0.32681 -0.16758,-1.27776 0.35842,-2.14046 0.74945,-1.22922 0.66599,-2.970173 -0.14239,-2.970173 -0.19215,0 -0.58233,-0.296167 -0.86706,-0.658146 -0.49751,-0.632476 -0.57679,-0.647221 -2.03267,-0.378087 -1.37205,0.253638 -1.5684,0.230061 -2.0812,-0.249875 -0.48713,-0.455914 -0.80644,-0.509304 -2.28601,-0.382238 -1.16092,0.0997 -1.89992,0.311266 -2.27411,0.651047 -0.77662,0.705212 -3.05002,0.954323 -3.52177,0.385902 -0.19488,-0.234815 -0.62741,-0.426936 -0.96119,-0.426936 -0.40571,0 -1.08304,-0.526201 -2.04346,-1.587501 -1.32352,-1.462532 -1.5245,-1.5875 -2.55314,-1.5875 -1.20481,0 -1.936286,-0.289282 -2.861401,-1.131617 -0.539145,-0.4909 -0.819254,-0.522587 -3.307292,-0.37414 -9.349152,0.557811 -14.439232,5.274588 -13.860258,12.843754 0.242194,3.16628 1.089356,6.78482 2.044692,8.73363 0.494429,1.0086 1.475317,2.33699 2.44765,3.31481 0.892415,0.89745 8.587729,7.27874 17.100699,14.18064 8.51297,6.90191 16.20882,13.28543 17.10189,14.18562 5.66339,5.7085 8.14591,12.28576 8.12887,21.53689 -0.006,3.35267 -0.11078,4.47767 -0.57321,6.16492 -1.64206,5.99134 -5.39859,9.89955 -12.30092,12.79761 -1.19359,0.50115 -2.61318,1.21588 -3.15462,1.58829 -0.70938,0.4879 -1.17307,0.62976 -1.65948,0.50768 -0.57651,-0.1447 -0.6342,-0.2457 -0.3953,-0.69208 0.25858,-0.48317 0.19297,-0.52267 -0.86831,-0.52267 -0.97043,0 -1.28909,0.14642 -2.05983,0.94645 -0.81033,0.84112 -1.02044,0.92939 -1.88801,0.79317 -0.53693,-0.0843 -1.03736,-0.0543 -1.11207,0.0665 -0.0747,0.1209 -1.42136,0.0521 -2.99253,-0.15291 -3.225302,-0.42082 -5.068059,-0.19084 -6.312172,0.78778 -0.390319,0.30702 -1.482222,0.77245 -2.426457,1.03427 l -1.716788,0.47606 z M 114.25604,94.834405 c 0.28414,-0.18012 0.27125,-0.255045 -0.0661,-0.384519 -0.52283,-0.200628 -0.53583,-0.668173 -0.034,-1.222674 0.54242,-0.599366 0.11505,-7.780968 -0.50372,-8.464707 -0.22577,-0.249468 -0.41049,-0.661292 -0.41049,-0.915165 0,-0.685291 -0.90838,-0.408872 -1.01059,0.30752 -0.0465,0.325935 -0.19688,0.59261 -0.33417,0.59261 -0.42924,0 0.0216,8.253492 0.47967,8.780724 0.4471,0.514644 0.25981,0.94805 -0.55104,1.275212 -0.43596,0.175898 -0.26028,0.232233 0.75468,0.241991 0.7276,0.007 1.48172,-0.08795 1.67583,-0.210992 z M 106.227,92.415193 c -0.14833,-0.239999 -0.24666,-0.23268 -0.40928,0.03046 -0.27896,0.451364 -0.005,0.894819 0.33992,0.550008 0.14552,-0.14552 0.17673,-0.40673 0.0694,-0.580466 z m -4.21588,-0.282443 c 0.27266,-0.441172 -0.34057,-0.947079 -0.70557,-0.582083 -0.30531,0.305308 -0.11423,0.869719 0.29445,0.869719 0.12834,0 0.31335,-0.129436 0.41112,-0.287636 z m 4.02017,-4.619935 c -0.0905,-1.127459 -0.30229,-1.912923 -0.6064,-2.248958 -0.42707,-0.471903 -0.43128,-0.556274 -0.049,-0.979408 0.30901,-0.341991 0.36722,-0.705082 0.22269,-1.389063 -0.17685,-0.836982 -0.27717,-0.922245 -1.04309,-0.886565 -1.46585,0.06829 -1.63263,0.233058 -1.63263,1.612986 0,1.063231 0.16612,1.493273 1.01133,2.61814 0.55622,0.740269 1.16598,1.719331 1.35501,2.175692 0.57356,1.384698 0.89433,0.994425 0.74204,-0.902824 z m 11.65287,-11.000249 c 0.0548,-0.289512 -0.16022,-0.477085 -0.6592,-0.574959 -0.86194,-0.169068 -1.27741,0.126042 -1.04181,0.740006 0.21678,0.564915 1.58794,0.431873 1.70101,-0.165047 z m 0.33102,-3.552334 c 0.27968,-0.336994 0.27025,-0.480311 -0.0529,-0.803472 -0.47945,-0.479452 -1.28101,-0.226605 -1.28101,0.404086 0,0.874463 0.75264,1.099806 1.33393,0.399386 z M 74.61142,186.47862 73.991091,185.81831 h 0.956548 c 1.141275,0 1.342369,0.23514 0.734401,0.85874 -0.427746,0.43875 -0.481351,0.42881 -1.07062,-0.19843 z m -2.778313,-1.29899 c -0.351269,-0.35127 -0.717129,-0.97634 -0.813022,-1.38906 -0.273818,-1.17849 -1.383514,-2.94745 -1.964701,-3.13191 -0.290565,-0.0922 -0.528301,-0.27679 -0.528301,-0.41015 0,-0.6688 3.430709,1.56718 3.445864,2.24586 0.0034,0.15467 0.287817,0.96584 0.63192,1.80258 0.701284,1.70529 0.39787,2.05231 -0.77176,0.88268 z"
         id="path834"
         inkscape:connector-curvature="0" />
      <path
         style="fill:#4e4e4e;stroke-width:0.26458332"
         d="m 90.804998,191.32164 c -0.174625,-0.17463 -0.3175,-0.53181 -0.3175,-0.79375 0,-0.26253 -0.192257,-0.47625 -0.42841,-0.47625 -0.235625,0 -1.098828,-0.4062 -1.918229,-0.90267 -1.289746,-0.78145 -1.797402,-0.92433 -3.780184,-1.06394 -1.471978,-0.10364 -2.523596,-0.055 -2.943093,0.13615 -0.817311,0.37239 -1.778,-0.0675 -1.778,-0.81406 0,-0.36699 -0.303178,-0.60007 -1.085315,-0.83441 -1.000895,-0.29987 -1.047203,-0.35309 -0.595313,-0.68416 0.298601,-0.21876 0.996204,-0.32843 1.785924,-0.28076 0.858901,0.0518 1.334765,-0.0333 1.411111,-0.25251 0.07788,-0.2236 -0.185323,-0.33072 -0.812599,-0.33072 -0.869469,0 -1.49868,-0.37519 -3.106087,-1.85209 -0.237569,-0.21828 -0.815258,-0.69453 -1.283753,-1.05833 -0.468495,-0.3638 -1.110715,-1.12409 -1.42716,-1.68952 -0.316441,-0.56544 -0.707834,-1.25495 -0.869759,-1.53225 -0.447429,-0.76622 -3.988218,-2.84412 -5.167892,-3.03276 -0.865856,-0.13846 -1.105839,-0.31793 -1.415229,-1.05841 -0.209542,-0.50151 -0.783458,-1.13412 -1.311582,-1.44572 -0.516456,-0.30471 -0.939012,-0.60882 -0.939012,-0.6758 0,-0.067 0.110885,-0.0532 0.246412,0.0305 0.135528,0.0838 0.665051,-0.0473 1.176721,-0.29134 0.906645,-0.43235 0.971193,-0.42529 2.537987,0.27785 2.422937,1.08735 3.266061,1.15597 4.089233,0.3328 0.374493,-0.3745 0.680897,-0.79149 0.680897,-0.92665 0,-0.28401 -0.901144,-0.5632 -1.834695,-0.56844 -1.657712,-0.009 -4.21581,-1.99644 -3.496302,-2.71595 0.167153,-0.16715 0.303914,-0.55931 0.303914,-0.87145 0,-0.31214 0.238125,-0.78303 0.529166,-1.04642 0.291042,-0.26339 0.529167,-0.6263 0.529167,-0.80645 0,-0.18016 0.192101,-0.40128 0.426892,-0.49138 0.267377,-0.1026 0.376449,-0.35671 0.291899,-0.68003 -0.07425,-0.28393 0.03015,-0.65329 0.232008,-0.82081 0.224668,-0.18646 0.305564,-0.54938 0.208587,-0.93577 -0.101944,-0.40618 -0.04365,-0.63119 0.163531,-0.63119 0.214458,0 0.2644,-0.22929 0.149582,-0.68676 -0.0948,-0.37773 -0.06441,-0.82421 0.06754,-0.99219 0.282818,-0.36005 0.361349,-0.94075 0.343222,-2.53803 -0.0073,-0.64585 0.118415,-1.33301 0.27943,-1.52702 0.653346,-0.78724 -0.324745,-5.12449 -1.452693,-6.44184 -0.608115,-0.71022 -0.892603,-0.48341 -1.099121,0.87629 -0.367969,2.42271 -1.289108,4.49222 -2.613636,5.87201 -1.108684,1.15495 -1.204981,1.21071 -0.708888,0.41046 0.315744,-0.50932 0.992204,-1.81901 1.503244,-2.91042 0.51104,-1.09141 1.0394,-2.19272 1.174131,-2.44737 0.35003,-0.66156 0.343632,-4.38919 -0.0098,-5.70168 -0.170024,-0.63142 -0.733353,-1.56685 -1.306269,-2.16911 -0.846735,-0.89011 -1.175541,-1.05892 -2.062525,-1.05892 -1.297498,0 -1.539933,-0.2094 -0.970674,-0.83843 0.610849,-0.67498 2.84729,-0.65768 3.976351,0.0308 2.694689,1.64308 6.891583,8.95713 9.516991,16.58554 0.645094,1.87438 0.718235,2.46381 0.735052,5.92362 l 0.01868,3.84212 -0.849038,1.3235 c -0.466968,0.72792 -1.221356,1.67787 -1.676413,2.111 -0.455059,0.43313 -0.940385,0.99587 -1.078502,1.25053 -0.38694,0.71344 0.17272,1.47413 1.230561,1.67258 1.018897,0.19115 2.208908,1.39371 1.694045,1.71192 -0.411179,0.25412 0.152032,3.81775 0.770818,4.87726 0.255305,0.43714 0.785651,0.97462 1.178547,1.19439 0.638199,0.35698 0.791924,0.35632 1.441961,-0.006 0.400182,-0.22319 0.852664,-0.78869 1.005517,-1.25667 0.216106,-0.66163 0.348504,-0.78027 0.595312,-0.53346 0.17457,0.17456 0.3174,0.58849 0.3174,0.91984 0,0.37099 0.279529,0.77648 0.727604,1.05546 0.400182,0.24916 1.681588,1.36959 2.847567,2.48985 2.252882,2.16454 3.568671,2.81363 4.774332,2.35524 0.666737,-0.25349 1.01342,-1.11357 0.866696,-2.15015 -0.07136,-0.50413 -0.284999,-0.64733 -1.125726,-0.75451 -1.287758,-0.16418 -1.481526,-0.61762 -0.447034,-1.04612 1.074271,-0.44498 1.644814,-0.20347 3.435185,1.45409 0.847503,0.78464 1.88644,1.55914 2.308749,1.72111 1.01813,0.39048 4.976389,1.03549 6.390229,1.0413 2.44526,0.0101 2.93861,-2.13215 0.79172,-3.43775 -0.65887,-0.40068 -0.74091,-0.5371 -0.40136,-0.6674 0.23473,-0.0901 0.7043,0.0143 1.04348,0.23188 1.17478,0.75372 3.40568,0.81898 5.41412,0.15838 1.79005,-0.58878 4.40698,-2.28734 4.69984,-3.05052 0.18058,-0.47058 -0.93259,-0.96735 -1.62363,-0.72456 -0.25592,0.0899 0.0423,-0.28121 0.66262,-0.82474 1.35412,-1.18641 3.29422,-3.84483 3.87279,-5.30671 0.58803,-1.48577 0.96548,-6.3727 0.65924,-8.5352 -0.70742,-4.99525 -2.0042,-8.19917 -4.4132,-10.90357 -0.79471,-0.89216 -6.57956,-5.8679 -12.85522,-11.05719 -6.275669,-5.1893 -13.493893,-11.16042 -16.040508,-13.26916 -7.613073,-6.30405 -10.052211,-9.21646 -11.790909,-14.07873 -1.503836,-4.20549 -2.154576,-12.22294 -1.3295,-16.38009 1.277917,-6.438751 5.710854,-11.432809 12.452585,-14.028817 2.559701,-0.985652 7.735522,-2.046684 11.366179,-2.330042 2.990646,-0.233407 3.674475,-0.530937 3.432858,-1.49362 -0.08315,-0.331275 -0.01881,-0.684124 0.142967,-0.784108 0.178546,-0.110348 0.229069,-0.52865 0.128559,-1.064417 -0.206002,-1.098082 0.42605,-1.525781 2.077689,-1.40593 1.05852,0.07681 1.11872,0.126568 1.20116,0.992836 0.0477,0.501584 0.28586,1.059116 0.52917,1.238959 0.34191,0.252731 0.37107,0.399331 0.12839,0.645551 -0.56468,0.572923 -0.0918,2.87829 0.86348,4.209523 0.47205,0.657844 1.13684,1.880523 1.47731,2.717065 0.34046,0.836542 0.72288,1.521151 0.84982,1.521355 0.12694,2.01e-4 0.17885,-1.08637 0.11534,-2.414606 -0.0939,-1.964289 -0.20736,-2.482171 -0.60788,-2.775045 -0.43132,-0.315385 -0.44927,-0.440712 -0.14467,-1.00986 0.21059,-0.393492 0.29092,-1.073536 0.20366,-1.724109 -0.13383,-0.997744 -0.094,-1.084817 0.55849,-1.221612 1.48241,-0.310775 2.02551,-0.812612 2.02551,-1.871608 0,-1.106207 0.39898,-1.341881 2.35628,-1.391835 0.66367,-0.01694 1.34361,-0.263011 1.90057,-0.687832 0.47697,-0.363802 1.03185,-0.661459 1.23306,-0.661459 0.38205,0 1.28246,-1.973492 1.78088,-3.903311 0.35035,-1.356488 1.25047,-2.052125 2.36652,-1.828915 0.96347,0.192694 1.39662,-0.283047 1.19149,-1.308664 -0.12019,-0.60098 -0.006,-0.905418 0.53024,-1.408828 0.66759,-0.627166 0.70518,-0.631879 1.60758,-0.201554 0.99448,0.474233 1.14451,0.998669 0.61695,2.156531 -0.21346,0.468498 -0.51588,0.674529 -0.99219,0.675946 -0.51947,0.0015 -0.82907,0.254121 -1.28044,1.044606 -0.99921,1.749907 -0.68335,2.657523 0.92484,2.657523 0.58701,0 1.10389,0.218743 1.53458,0.649431 1.56129,1.561284 0.20797,3.583902 -2.39796,3.583902 -0.78061,0 -1.48722,0.109902 -1.57023,0.244227 -0.083,0.134325 -0.50677,0.322379 -0.94166,0.417898 -0.55942,0.122869 -0.79072,0.329909 -0.79072,0.707793 0,0.50104 0.10243,0.521209 1.65365,0.325637 0.9095,-0.114668 2.66568,-0.209834 3.9026,-0.21148 2.04377,-0.0027 2.24896,0.04344 2.24896,0.505914 0,0.397097 -0.26159,0.5529 -1.19062,0.709139 -0.65485,0.110127 -1.42875,0.325286 -1.7198,0.478131 -0.29104,0.152845 -1.42213,0.440108 -2.51354,0.638362 l -1.98437,0.360463 1.65364,0.02862 c 1.25518,0.02173 1.65365,0.121089 1.65365,0.412353 0,0.211051 -0.16905,0.478941 -0.37567,0.595313 -0.29332,0.165205 -0.32628,0.475239 -0.15036,1.414388 0.12391,0.661542 0.25848,2.545991 0.29903,4.187666 0.0649,2.627369 0.13448,3.01737 0.58089,3.256283 0.73575,0.393767 0.9602,-0.126383 0.96498,-2.236279 0.004,-1.659434 0.0536,-1.814173 0.67528,-2.097444 1.12808,-0.513986 1.55696,0.197964 1.67011,2.77242 0.0526,1.196231 0.21671,2.323796 0.36473,2.505697 0.39789,0.488947 3.74533,0.428704 4.73928,-0.08529 1.58616,-0.820235 2.17158,0.253585 0.65069,1.193544 -0.95562,0.590608 -1.21688,1.01596 -1.21688,1.981231 0,0.817044 -0.79798,1.474576 -1.78954,1.474576 -0.45201,0 -1.12725,0.116115 -1.50052,0.258035 -0.92375,0.351208 -0.92433,1.744597 -10e-4,3.206707 0.7936,1.25714 0.56702,1.80224 -0.77588,1.86657 l -0.8275,0.0397 0.79375,0.113 c 0.43657,0.0622 0.87713,0.19318 0.97903,0.29115 0.1019,0.098 0.24249,1.96407 0.31241,4.14683 0.0699,2.18278 0.21472,4.19545 0.32175,4.4726 0.12446,0.32229 -0.0123,0.89446 -0.3793,1.5875 -0.43259,0.81678 -0.57372,1.54346 -0.57316,2.95125 5.2e-4,1.23355 -0.13116,2.04203 -0.38773,2.38125 -0.21365,0.28247 -0.39407,1.04937 -0.40093,1.70421 -0.007,0.65485 -0.11639,1.35471 -0.24341,1.55527 -0.39522,0.62395 -0.8192,0.0519 -0.82103,-1.10785 -10e-4,-0.66116 -0.21398,-1.42934 -0.52742,-1.90261 -0.38207,-0.57692 -0.52615,-1.24229 -0.52742,-2.43565 -10e-4,-1.31321 -0.13416,-1.83702 -0.6632,-2.61661 -1.03003,-1.51783 -0.87681,-1.8928 0.91705,-2.2443 l 0.93501,-0.18322 -0.97657,-0.0304 c -0.53712,-0.0168 -1.0309,-0.11973 -1.0973,-0.22887 -0.0664,-0.10914 -0.19685,-1.84784 -0.28991,-3.86379 -0.12065,-2.61389 -0.0812,-3.77136 0.13751,-4.0349 0.2415,-0.29099 0.21368,-0.36954 -0.13089,-0.36954 -0.70571,0 -0.78199,-0.71889 -0.18383,-1.73268 0.89539,-1.51757 0.74739,-2.642017 -0.5081,-3.860428 -0.87884,-0.852893 -1.15293,-0.986052 -1.5701,-0.762789 -0.83741,0.448167 -2.83834,0.339482 -3.03181,-0.164682 -0.24994,-0.65134 -3.99069,-0.310504 -4.78533,0.436012 -0.4128,0.387811 -0.92724,0.528315 -1.93437,0.528315 -0.7546,0 -1.37201,-0.113667 -1.37201,-0.252595 0,-0.138925 -0.41963,-0.331316 -0.93251,-0.427535 -0.51289,-0.09622 -1.07843,-0.381071 -1.25677,-0.63301 -0.17835,-0.251939 -0.72791,-0.916146 -1.22126,-1.476018 -0.81761,-0.927844 -1.01929,-1.019829 -2.27844,-1.039164 -1.16281,-0.01786 -1.53523,-0.156261 -2.35335,-0.874573 -1.083802,-0.951589 -1.357542,-0.985361 -4.664612,-0.575471 -6.323443,0.783754 -10.030613,2.89655 -11.959076,6.815748 -0.844793,1.71686 -0.866203,1.84593 -0.863407,5.2048 0.0048,5.79909 1.188686,9.52617 3.986107,12.54925 0.862002,0.93154 8.805801,7.5861 17.652888,14.78792 8.84709,7.20182 16.80839,13.8804 17.69179,14.84129 2.73655,2.97661 4.62978,6.11818 5.75782,9.55439 1.60251,4.88146 2.10599,12.78065 1.07226,16.82276 -1.66211,6.49922 -5.74193,10.74566 -12.82623,13.35001 -0.87313,0.32099 -1.96651,0.86623 -2.42974,1.21166 -0.46324,0.34542 -1.08831,0.62805 -1.38907,0.62805 -0.57504,0 -0.7348,-0.38176 -0.27792,-0.66413 0.52026,-0.32153 0.004,-0.57486 -1.20983,-0.5932 -1.02691,-0.0155 -1.38349,0.12256 -2.1932,0.84931 -0.99032,0.88887 -0.98062,0.88677 -4.47264,0.96668 -0.71265,0.0163 -2.49693,-0.21385 -3.314228,-0.42749 -0.941232,-0.24605 -4.112051,0.53337 -4.821709,1.18522 -0.476609,0.43779 -2.957697,1.32944 -3.699271,1.32944 -0.162767,0 -0.438812,-0.14288 -0.613437,-0.3175 z m 31.895522,-87.17739 c -0.25466,-0.0666 -0.67138,-0.0666 -0.92604,0 -0.25467,0.0666 -0.0463,0.121 0.46302,0.121 0.50932,0 0.71768,-0.0544 0.46302,-0.121 z m -8.59896,-8.98327 c 1.17409,-0.194064 1.27122,-0.530188 0.26458,-0.915612 l -0.7276,-0.278587 0.58237,-0.474396 c 0.57413,-0.467688 0.57885,-0.529796 0.33417,-4.390503 -0.21583,-3.405342 -0.32026,-3.992811 -0.80071,-4.504221 -0.38788,-0.412883 -0.46087,-0.644748 -0.24497,-0.778183 0.48999,-0.302827 -0.13484,-0.737348 -0.77027,-0.53567 -0.30569,0.09702 -0.5558,0.400589 -0.5558,0.674594 0,0.274004 -0.16376,0.593403 -0.36392,0.709775 -0.30268,0.175976 -0.319,0.924032 -0.097,4.444918 0.14682,2.328333 0.38746,4.310613 0.53477,4.405069 0.42844,0.274727 -0.006,1.018889 -0.59473,1.018889 -0.30136,0 -0.53747,0.174345 -0.53747,0.396875 0,0.433504 1.18203,0.523669 2.97656,0.227052 z M 120.65,94.140178 c 0,-0.427027 -0.24233,-0.490336 -0.9044,-0.236275 -0.64413,0.247173 -0.49603,0.63315 0.24294,0.63315 0.41157,0 0.66146,-0.149931 0.66146,-0.396875 z m -14.04152,-1.389062 c -0.0102,-0.400183 -0.10739,-0.953956 -0.21592,-1.230604 -0.1734,-0.442016 -0.23896,-0.402495 -0.5407,0.325977 -0.38844,0.937771 -0.231,1.632231 0.37004,1.632231 0.27013,0 0.39898,-0.242512 0.38658,-0.727604 z m -4.47932,-0.859896 c 0,-0.352777 -0.17639,-0.529167 -0.52916,-0.529167 -0.35278,0 -0.52917,0.17639 -0.52917,0.529167 0,0.352777 0.17639,0.529166 0.52917,0.529166 0.35277,0 0.52916,-0.176389 0.52916,-0.529166 z m 15.47055,-14.910698 c 0.75566,-0.552556 0.33615,-1.228886 -0.76225,-1.228886 -1.1244,0 -1.4187,0.394198 -0.80258,1.075006 0.54789,0.605412 0.89997,0.640035 1.56483,0.15388 z m -0.01,-2.259495 c 0.0805,-0.130273 -0.0413,-0.308866 -0.27061,-0.396875 -0.5897,-0.226289 -0.6383,-0.208255 -0.6383,0.236859 0,0.429132 0.66971,0.547037 0.9089,0.160016 z m 0.5463,-2.144391 c 0,-0.770232 -0.9093,-1.054664 -1.41679,-0.443179 -0.49414,0.595405 -0.0777,1.277954 0.72298,1.185096 0.54221,-0.06288 0.69381,-0.224982 0.69381,-0.741917 z M 74.877082,186.34747 c 0,-0.14552 0.119063,-0.26458 0.264584,-0.26458 0.145521,0 0.264583,0.11906 0.264583,0.26458 0,0.14552 -0.119062,0.26459 -0.264583,0.26459 -0.145521,0 -0.264584,-0.11907 -0.264584,-0.26459 z m 22.621874,-0.52916 c -0.09055,-0.14652 0.102756,-0.26459 0.433184,-0.26459 0.328189,0 1.03999,-0.30719 1.58178,-0.68265 0.54179,-0.37546 1.2404,-0.64336 1.55247,-0.59532 0.49982,0.0769 0.43361,0.18977 -0.55592,0.94724 -1.125125,0.86127 -2.659666,1.16462 -3.011514,0.59532 z m -25.474791,-0.67743 c -0.314619,-0.22036 -0.752049,-1.00684 -0.972068,-1.74773 -0.22002,-0.74089 -0.537935,-1.51323 -0.706478,-1.71631 -0.53989,-0.65053 0.01191,-0.73361 0.683284,-0.10288 0.554093,0.52054 1.881772,3.65311 1.647566,3.88732 -0.04415,0.0442 -0.337685,-0.10003 -0.652304,-0.3204 z m 38.836245,-3.55591 c 0,-0.14552 0.12609,-0.26458 0.2802,-0.26458 0.15411,0 0.20662,0.11906 0.11668,0.26458 -0.0899,0.14552 -0.21603,0.26459 -0.2802,0.26459 -0.0642,0 -0.11668,-0.11907 -0.11668,-0.26459 z"
         id="path832"
         inkscape:connector-curvature="0" />
      <path
         style="fill:#2e2e2e;stroke-width:0.26458332"
         d="m 90.928471,191.19817 c -0.09701,-0.097 -0.176389,-0.39241 -0.176389,-0.65642 0,-0.30288 -0.268216,-0.54735 -0.726795,-0.66244 -0.399735,-0.10033 -1.365467,-0.59097 -2.14607,-1.09032 l -1.419275,-0.9079 -3.211742,0.0931 c -3.193069,0.0925 -3.212251,0.0895 -3.299061,-0.52337 -0.05704,-0.40268 -0.355234,-0.70985 -0.859895,-0.88578 -1.18018,-0.41142 -0.921203,-0.77967 0.502621,-0.7147 1.395301,0.0637 1.8998,-0.12463 1.8998,-0.7091 0,-0.2669 -0.310062,-0.38126 -1.033724,-0.38126 -0.890535,0 -1.321165,-0.24394 -3.108854,-1.76112 -1.339413,-1.13672 -2.438699,-2.3562 -3.100594,-3.43958 -0.564004,-0.92316 -1.124767,-1.67846 -1.246137,-1.67846 -0.12137,0 -0.969597,-0.47512 -1.884952,-1.05582 -1.049703,-0.66594 -1.979832,-1.05675 -2.518799,-1.05834 -0.73125,-0.002 -0.933352,-0.15704 -1.401016,-1.07374 -0.300572,-0.58917 -0.719712,-1.13769 -0.931418,-1.21893 -0.554358,-0.21273 -0.475171,-0.54893 0.239604,-1.01727 0.582504,-0.38167 0.738285,-0.35538 2.315104,0.39057 2.091356,0.98937 3.345135,1.03424 4.295227,0.15373 0.960874,-0.89051 0.676431,-1.37041 -0.939284,-1.58474 -1.410504,-0.18711 -3.064828,-0.90048 -3.609112,-1.55631 -0.243531,-0.29343 -0.248984,-0.56908 -0.02262,-1.14381 0.547513,-1.3902 1.423789,-3.00618 1.630113,-3.00618 0.112181,0 0.203965,-0.28308 0.203965,-0.62906 0,-0.34598 0.181282,-0.77951 0.402849,-0.9634 0.222637,-0.18477 0.336182,-0.54438 0.25382,-0.80388 -0.08197,-0.25825 -0.04405,-0.53442 0.08426,-0.61372 0.128304,-0.0793 0.24126,-0.672 0.251013,-1.31711 0.0098,-0.64512 0.156451,-1.43214 0.325993,-1.74893 0.225425,-0.42121 0.231992,-0.79477 0.02445,-1.39015 -0.204729,-0.58729 -0.202006,-0.91275 0.0098,-1.16793 0.177673,-0.21408 0.255104,-1.11269 0.19611,-2.27593 -0.124463,-2.45421 -1.235647,-4.96489 -2.19737,-4.96489 -0.555318,0 -0.620326,-0.14002 -0.722815,-1.55693 -0.128892,-1.78189 -1.055082,-3.81236 -2.092196,-4.58668 -0.375499,-0.28035 -1.198504,-0.57891 -1.828903,-0.66346 l -1.146177,-0.15374 0.603083,-0.48834 c 1.158809,-0.93835 3.173804,-0.45952 4.739256,1.1262 1.518256,1.53791 3.48628,4.68038 5.357299,8.55433 2.993266,6.19758 4.168854,10.61892 3.82688,14.39275 -0.213741,2.35869 -0.8011,3.61466 -2.560277,5.47473 -0.711534,0.75234 -1.293699,1.61578 -1.293699,1.91874 0,0.67903 0.667811,1.3824 1.312503,1.3824 0.264527,0 0.758176,0.22448 1.096999,0.49884 0.520462,0.42145 0.562525,0.56333 0.271119,0.91445 -0.189709,0.22859 -0.262099,0.54963 -0.160862,0.71344 0.101235,0.1638 0.359704,1.15128 0.574374,2.1944 0.406138,1.97349 1.269862,3.45423 2.184132,3.74441 0.694323,0.22037 2.084306,-0.53187 2.444811,-1.32309 0.334137,-0.73335 0.76046,-0.6464 0.561478,0.11451 -0.09248,0.35364 0.09462,0.64805 0.620151,0.97583 0.413922,0.25816 1.715969,1.39513 2.893433,2.5266 1.177467,1.13147 2.465139,2.18051 2.861495,2.33121 1.791343,0.68106 3.332033,-0.0399 3.332033,-1.5592 0,-0.91483 -0.68289,-1.69711 -1.333071,-1.52708 -0.253238,0.0662 -0.622443,0.0159 -0.820452,-0.11175 -0.299165,-0.19291 -0.292936,-0.27619 0.03686,-0.49268 0.961491,-0.63118 1.835288,-0.25048 4.006985,1.74577 1.370597,1.25987 2.672649,1.72022 6.311768,2.23156 1.93658,0.27211 2.38677,0.25831 3.24114,-0.0994 0.86397,-0.36172 0.99167,-0.52827 0.98814,-1.2888 -0.002,-0.48037 -0.11759,-1.05199 -0.25635,-1.27027 -0.21535,-0.33877 0.10484,-0.41982 2.18687,-0.5536 2.6895,-0.1728 4.04055,-0.59998 5.98755,-1.89315 1.81916,-1.20825 2.38611,-2.58033 1.0662,-2.58033 -0.28246,0 -0.51355,-0.0627 -0.51355,-0.13935 0,-0.0766 0.66049,-0.93984 1.46777,-1.91823 2.71249,-3.28744 3.47346,-5.83068 3.22393,-10.77471 -0.24549,-4.86379 -1.48008,-8.67741 -3.81448,-11.78285 -1.00412,-1.33578 -5.01252,-4.97662 -8.45113,-7.6762 -2.00301,-1.57252 -23.972763,-19.83495 -25.745963,-21.40142 -5.340244,-4.71764 -7.904001,-9.95858 -8.768873,-17.9257 -1.184095,-10.907757 3.159942,-18.789616 12.316605,-22.347348 2.6055,-1.012342 8.547065,-2.249354 11.995366,-2.497391 2.30601,-0.165871 2.650445,-0.26028 3.432333,-0.940797 0.749557,-0.652378 0.79505,-0.756425 0.33073,-0.756425 -0.759357,0 -0.670198,-0.438714 0.129968,-0.639544 l 0.668344,-0.167743 -0.73449,-0.638043 c -0.651021,-0.565503 -0.68941,-0.682121 -0.337662,-1.025627 0.62688,-0.61219 2.484742,-0.820081 2.896372,-0.324098 0.2811,0.338702 0.26693,0.524537 -0.0804,1.054673 -0.23191,0.35394 -0.69248,0.695509 -1.02349,0.759043 -0.35558,0.06825 -0.1688,0.130833 0.45651,0.15295 l 1.05833,0.03743 0.0826,1.784535 c 0.0671,1.448737 0.20104,1.909003 0.71179,2.445994 0.34603,0.363802 1.00936,1.475155 1.47407,2.469673 0.75266,1.610736 0.8271,1.978804 0.68167,3.370216 -0.15239,1.457973 -0.1195,1.590675 0.49376,1.9925 0.56897,0.372803 1.0015,0.394997 3.22737,0.165595 1.41368,-0.145696 2.72339,-0.206169 2.91045,-0.134385 0.57802,0.221806 0.37741,0.529466 -0.45363,0.695672 -0.81888,0.163777 -1.01892,0.634722 -0.49299,1.160648 0.27866,0.278664 2.00562,0.238082 3.60185,-0.08464 0.76213,-0.154088 0.83311,-1.168611 0.0818,-1.168611 -0.77785,0 -0.92291,-0.499094 -0.22246,-0.765403 0.91061,-0.346215 5.74321,-0.480729 5.77119,-0.160639 0.0127,0.145521 -0.25178,0.329483 -0.58779,0.408802 -0.56332,0.132983 -0.63002,0.269905 -0.51833,1.06398 0.0737,0.524198 1.48454,0.152345 1.57242,-0.414449 0.0451,-0.291041 0.19336,-0.767291 0.32942,-1.058333 0.13605,-0.291042 0.27874,-1.350174 0.31709,-2.35363 0.0535,-1.399021 0.17769,-1.892284 0.53274,-2.115312 0.33641,-0.21132 0.58963,-0.211372 0.92604,-1.88e-4 0.36012,0.226065 0.49373,0.784384 0.60118,2.51219 0.076,1.221838 0.23184,2.370352 0.34634,2.552253 0.29114,0.46251 4.33684,0.425915 5.19071,-0.04695 0.65377,-0.36205 1.33625,-0.291748 1.33625,0.13765 0,0.127886 -0.47625,0.54769 -1.05833,0.932894 -0.86556,0.572797 -1.05834,0.853438 -1.05834,1.540685 0,1.322771 -0.5126,1.786742 -2.13839,1.935527 -0.78842,0.07215 -1.58231,0.24977 -1.76421,0.394703 -0.52392,0.417439 -0.38785,1.550843 0.35332,2.943133 0.38329,0.72 0.58372,1.38532 0.45587,1.51317 -0.1255,0.1255 -1.26676,0.30801 -2.53613,0.40558 -2.60754,0.20043 -2.68467,0.13291 -1.77879,-1.55726 0.29104,-0.54303 0.52917,-1.34493 0.52917,-1.78203 0,-0.750676 -0.7716,-1.853039 -1.29704,-1.853039 -0.13128,0 -0.36959,-0.375475 -0.52957,-0.834392 -0.26739,-0.767038 -0.32821,-0.801688 -0.75349,-0.429239 -0.25443,0.222832 -0.99917,0.482195 -1.65497,0.57636 -1.01405,0.145606 -1.26463,0.08681 -1.67561,-0.393189 -0.37334,-0.436023 -0.66633,-0.527786 -1.28811,-0.403429 -0.44267,0.08854 -1.26623,0.160972 -1.83012,0.160972 -0.68138,0 -1.20749,0.182232 -1.56857,0.543307 -0.74056,0.740566 -2.90991,1.003911 -3.40049,0.412797 -0.19488,-0.234815 -0.62562,-0.426937 -0.95721,-0.426937 -0.40766,0 -1.04822,-0.514059 -1.97816,-1.5875 -1.32167,-1.525632 -1.42439,-1.5875 -2.63563,-1.5875 -1.01478,0 -1.46076,-0.160771 -2.288923,-0.825143 l -1.028568,-0.82514 -2.778124,0.147227 c -6.122175,0.324446 -10.815926,2.607747 -12.78037,6.217079 -1.644059,3.020686 -1.830956,5.970746 -0.721375,11.386536 0.641119,3.12927 1.682802,5.33953 3.400983,7.21627 1.183801,1.29305 12.954084,11.02131 27.915417,23.07238 2.49845,2.01246 5.29575,4.39371 6.21623,5.29167 4.57358,4.46173 6.8037,8.55087 7.97208,14.61756 2.60388,13.52041 -1.4481,21.99054 -12.5083,26.14695 -0.99235,0.37293 -2.14183,0.9184 -2.55438,1.21217 -0.93555,0.66617 -1.05045,0.66681 -0.87737,0.005 0.12855,-0.49157 0.008,-0.52916 -1.69506,-0.52916 -1.6888,0 -1.893,0.0622 -2.58839,0.78799 -0.7771,0.81112 -0.68476,0.79165 -4.10655,0.86594 -0.50932,0.0111 -1.86239,-0.0675 -3.00682,-0.17459 -2.422818,-0.2267 -4.337218,0.13513 -5.409172,1.02234 -0.968002,0.80118 -3.660053,1.47366 -4.107617,1.02609 z M 102.94327,93.234488 c 0.85455,-0.854548 0.98087,-1.723057 0.37619,-2.586363 -1.29232,-1.845046 -4.289294,-0.270245 -3.579375,1.880831 0.514875,1.560094 2.017625,1.89109 3.203185,0.705532 z m -2.515,-0.436126 c -0.486614,-0.486616 -0.513882,-0.758611 -0.14512,-1.447638 0.64642,-1.207852 1.99685,-1.189964 2.6525,0.03514 0.69177,1.292569 -1.43131,2.488576 -2.50738,1.412502 z m 1.54696,-0.273992 c 0.46582,-0.17875 0.56649,-1.039635 0.15157,-1.296072 -0.38594,-0.238524 -1.32055,0.112191 -1.32055,0.495544 0,0.179369 0.14287,0.469003 0.3175,0.643628 0.37103,0.371036 0.31862,0.361378 0.85148,0.1569 z m -2.491899,92.63248 c 0.493107,-0.36381 1.022249,-0.6577 1.175879,-0.6531 0.45583,0.0137 -1.166076,1.31456 -1.63891,1.31456 -0.27817,0 -0.112239,-0.23704 0.463031,-0.66146 z m -27.906746,-0.91291 c -0.445116,-0.86076 -0.561668,-2.13245 -0.157609,-1.7197 0.378309,0.38646 1.044617,2.50032 0.788119,2.50032 -0.124761,0 -0.408492,-0.35128 -0.63051,-0.78062 z m -4.62059,-27.92668 c 0.0041,-0.14552 0.303432,-0.80036 0.665125,-1.45521 0.371502,-0.67259 0.584031,-0.90283 0.488477,-0.52916 -0.185214,0.72426 -1.165688,2.41083 -1.153602,1.98437 z m 56.251645,-33.3816 c -0.097,-0.097 -0.18018,-0.66255 -0.18481,-1.25677 -0.005,-0.59421 -0.18322,-1.31149 -0.39687,-1.59397 -0.2484,-0.3284 -0.3902,-1.13931 -0.39328,-2.24896 -0.004,-1.49117 -0.11772,-1.90202 -0.80721,-2.9197 -0.70512,-1.04076 -0.75256,-1.22077 -0.3913,-1.48493 0.56259,-0.41138 4.38244,-0.73975 4.71672,-0.40547 0.17239,0.17239 0.024,0.66704 -0.43528,1.45069 -0.57767,0.98572 -0.6983,1.52046 -0.70528,3.12637 -0.006,1.28247 -0.13971,2.11085 -0.39687,2.45085 -0.21651,0.28624 -0.38846,1.07681 -0.38846,1.78594 0,1.18416 -0.19067,1.52264 -0.61736,1.09595 z m -2.05376,-11.26684 c -0.0139,-0.32742 -0.0645,-2.05382 -0.11238,-3.83645 l -0.0871,-3.24115 0.7077,-0.002 c 0.38924,-10e-4 1.34317,-0.0786 2.11985,-0.17188 l 1.41215,-0.16958 -0.0487,1.03177 c -0.0268,0.56748 -0.0246,1.09131 0.005,1.16407 0.0296,0.0728 0.0872,1.33927 0.12825,2.81447 l 0.0745,2.68218 -0.96251,0.15918 c -0.52937,0.0875 -1.46851,0.16049 -2.08698,0.16209 -0.98317,0.003 -1.12765,-0.0719 -1.14976,-0.5924 z M 110.75452,90.766741 c -0.33056,-4.703802 -0.31764,-5.357813 0.10589,-5.357813 0.47263,0 0.72819,1.739794 0.76759,5.225521 0.0207,1.828353 -0.0523,2.315104 -0.34696,2.315104 -0.27856,0 -0.412,-0.553196 -0.52652,-2.182812 z m 8.53596,1.603115 c -0.0201,-0.04497 -0.17759,-1.689105 -0.3499,-3.653636 -0.29488,-3.36182 -0.19699,-4.420858 0.3534,-3.82323 0.35355,0.383893 0.6355,7.186322 0.3063,7.389779 -0.15026,0.09287 -0.28967,0.132056 -0.3098,0.08709 z m -12.32764,-6.482824 c 0.25744,-0.06708 0.61462,-0.06267 0.79375,0.0098 0.17914,0.07248 -0.0315,0.127362 -0.46805,0.12197 -0.43656,-0.0054 -0.58313,-0.06469 -0.3257,-0.131774 z m -1.34047,-0.82134 c -0.27452,-0.186057 -0.2595,-0.302152 0.075,-0.579779 0.30959,-0.256935 0.38906,-0.68056 0.30586,-1.630291 -0.10064,-1.148732 -0.0563,-1.283153 0.42291,-1.283153 0.50945,0 2.31759,-0.95931 2.31759,-1.229598 0,-0.07046 -0.12733,-0.366015 -0.28295,-0.656792 -0.46788,-0.874244 0.12917,-1.28861 1.85672,-1.28861 1.26749,0 1.60844,-0.10586 2.13039,-0.661458 0.83802,-0.892026 1.24421,-0.832846 1.6954,0.24701 0.21536,0.515435 0.73328,1.091373 1.19713,1.331238 0.67664,0.349902 0.78929,0.535342 0.65362,1.075907 -0.15787,0.629005 -0.11522,0.653137 1.15441,0.653137 0.72508,0 1.82223,-0.177785 2.4381,-0.395078 0.61588,-0.217293 1.24359,-0.318556 1.39492,-0.225027 0.15133,0.09353 0.90384,0.149507 1.67224,0.124398 0.7684,-0.02511 1.46867,0.07018 1.55617,0.211752 0.21658,0.350431 -0.71183,0.813121 -1.63155,0.813121 -0.41375,0 -0.98713,0.162595 -1.27417,0.361322 -0.29785,0.206213 -2.33918,0.558618 -4.75522,0.820919 -2.32834,0.252778 -4.31108,0.536668 -4.40609,0.630866 -0.095,0.0942 -0.21408,0.400831 -0.26459,0.681407 -0.0524,0.291006 -0.40234,0.593181 -0.81471,0.70346 -1.23844,0.331197 -5.08056,0.539677 -5.4412,0.295249 z m 7.93466,-0.871113 c 0.18773,-0.56874 6.29922,-1.086584 6.29922,-0.53375 0,0.405488 -0.76849,0.560964 -3.64162,0.736759 -2.3276,0.142415 -2.76069,0.109332 -2.6576,-0.203009 z m 2.43541,-5.259307 c -1.67986,-0.747569 -1.7802,-1.391162 -0.71823,-4.606773 0.89966,-2.724147 1.16172,-3.028527 2.69277,-3.127612 1.22148,-0.07905 1.22781,-0.08442 1.22781,-1.04344 0,-1.058515 0.71993,-2.078728 1.4669,-2.078728 0.25237,0 0.71491,0.208359 1.02787,0.463021 0.50468,0.410678 0.53498,0.560229 0.268,1.322917 -0.21903,0.625738 -0.4629,0.859896 -0.89556,0.859896 -0.67183,0 -1.19857,0.515858 -1.86107,1.822611 -0.64834,1.278836 -0.23138,2.146139 1.03177,2.146139 1.97568,0 3.05215,2.127651 1.74021,3.439583 -0.3715,0.371501 -0.88194,0.529167 -1.71317,0.529167 -1.17446,0 -1.18273,-0.0064 -1.02526,-0.79375 0.21772,-1.088629 -0.0586,-0.99501 -0.6845,0.231951 -0.41586,0.815152 -1.11357,1.468626 -1.42735,1.336859 -0.0245,-0.01028 -0.53307,-0.236108 -1.13019,-0.501841 z m 1.87234,-2.023721 c 0.59765,-0.597648 0.38404,-0.98113 -0.67415,-1.210229 -1.13379,-0.245469 -1.56772,-0.102021 -1.56772,0.51826 0,1.074921 1.42048,1.513361 2.24187,0.691969 z m -0.15989,-2.044155 c 0.37048,-0.446403 0.12546,-0.70326 -0.67087,-0.70326 -0.94089,0 -0.75535,0.915985 0.21014,1.037445 0.0913,0.01149 0.29865,-0.138895 0.46073,-0.334185 z m 0.5536,-1.742426 c 0.34585,-0.646229 0.11077,-1.274522 -0.55605,-1.486163 -0.98845,-0.313722 -1.7099,0.937034 -0.96828,1.678662 0.47622,0.476216 1.21647,0.382732 1.52433,-0.192499 z"
         id="path830"
         inkscape:connector-curvature="0" />
      <path
         style="fill:#020202;stroke-width:0.26458332"
         d="m 91.233504,190.51466 c -0.05514,-0.38829 -0.360577,-0.68732 -0.878297,-0.8599 -0.436563,-0.14552 -1.456166,-0.64757 -2.265789,-1.11568 -1.374018,-0.79442 -1.650084,-0.85359 -4.145983,-0.88861 -1.470673,-0.0206 -2.797482,0.0388 -2.948467,0.13214 -0.150984,0.0933 -0.461237,-0.19142 -0.689453,-0.63274 -0.396095,-0.76596 -0.390599,-0.8024 0.121023,-0.8024 0.702622,0 1.624658,-0.93593 1.427694,-1.44921 -0.103331,-0.26927 -0.518115,-0.40522 -1.25077,-0.40994 -0.883441,-0.006 -1.312897,-0.19826 -2.212938,-0.99219 -0.61422,-0.54181 -1.490488,-1.28277 -1.947259,-1.64657 -0.456774,-0.36381 -1.299282,-1.39757 -1.872242,-2.29726 -0.871794,-1.36893 -1.378032,-1.83295 -3.103075,-2.84427 -1.133732,-0.66466 -2.288993,-1.2103 -2.567244,-1.21253 -0.278252,-0.002 -0.634006,-0.0915 -0.790565,-0.19843 -0.493659,-0.33712 -1.682459,-2.25723 -1.540116,-2.48755 0.239853,-0.38809 1.146501,-0.23757 2.428875,0.40323 2.336975,1.16777 3.37565,1.09062 4.677061,-0.34743 0.773694,-0.85492 0.27704,-1.36603 -1.724025,-1.77422 -2.243984,-0.45773 -3.05104,-1.07033 -2.956152,-2.24388 0.0395,-0.48856 0.307392,-1.21089 0.595312,-1.60518 0.28792,-0.39429 0.523489,-0.84078 0.523489,-0.99219 0,-0.15141 0.116795,-0.2753 0.259543,-0.2753 0.142748,0 0.337759,-0.32742 0.433358,-0.7276 0.0956,-0.40018 0.26289,-0.84667 0.371761,-0.99219 0.200094,-0.26745 0.958686,-4.88535 1.043127,-6.35 0.253146,-4.39085 -0.746987,-7.95079 -2.379247,-8.46885 -0.378909,-0.12026 -0.522292,-0.40191 -0.522292,-1.02596 0,-0.4731 -0.179274,-1.46387 -0.398389,-2.2017 -0.455633,-1.53429 -2.037826,-3.17083 -3.311866,-3.42564 -0.977064,-0.19542 -0.763008,-0.62056 0.312447,-0.62056 2.648346,0 5.37224,3.32488 8.77875,10.71563 2.889218,6.26843 3.810063,9.79112 3.492751,13.36146 -0.224303,2.5238 -0.799335,3.773 -2.492171,5.41401 -1.061863,1.02935 -1.354439,1.49201 -1.354439,2.14181 0,0.91446 0.680595,1.70231 1.476041,1.70865 0.819113,0.007 1.090322,0.33302 1.095553,1.31886 0.0027,0.50932 0.210285,1.87854 0.461298,3.04271 0.355748,1.64992 0.625488,2.27589 1.223248,2.83872 1.092364,1.02853 1.897676,1.16215 2.978475,0.49417 0.793975,-0.4907 0.940181,-0.50957 1.231196,-0.15892 0.181629,0.21885 0.467461,0.39791 0.635186,0.39791 0.167724,0 1.194943,0.90608 2.282708,2.01352 2.129618,2.16813 3.528705,2.99856 5.067403,3.00775 1.310619,0.008 2.154425,-1.01175 2.018337,-2.43877 -0.05219,-0.54726 -0.007,-0.995 0.100317,-0.995 0.107362,0 0.647774,0.45711 1.200911,1.0158 0.992204,1.00217 3.470558,2.1592 4.625015,2.1592 0.917919,0 0.417467,0.23559 -1.657784,0.78043 -1.07447,0.2821 -2.089684,0.69903 -2.256031,0.92652 -0.276013,0.37747 -2.45124,1.19374 -3.19941,1.2006 -0.171781,0.002 -0.350374,-0.26503 -0.396875,-0.59245 z m 12.372386,-1.81046 c 1.25121,-0.35615 1.77371,-1.09022 1.65583,-2.3263 l -0.10055,-1.05434 2.25431,-0.10506 c 2.48159,-0.11567 4.26969,-0.67713 5.3115,-1.66784 0.37176,-0.35352 0.8096,-0.64277 0.97298,-0.64277 0.70678,0 1.89497,-2.37102 1.19535,-2.3853 -0.10914,-0.002 -0.36617,-0.11024 -0.57118,-0.24002 -0.29498,-0.18674 -0.1133,-0.53085 0.87092,-1.64959 1.90351,-2.16366 2.77076,-4.14708 3.10801,-7.10802 0.67941,-5.96509 -0.83844,-12.09864 -3.97639,-16.06845 -1.37594,-1.7407 -2.94469,-3.07358 -25.29438,-21.49134 -9.051954,-7.45946 -10.225524,-8.51025 -12.083174,-10.81904 -2.974276,-3.69659 -4.574169,-7.89418 -5.261173,-13.80357 -0.375078,-3.22631 -0.199784,-7.65587 0.392205,-9.910715 1.560851,-5.945167 6.092343,-10.652253 12.420475,-12.901766 2.751527,-0.978108 8.030747,-2.012413 11.367124,-2.227048 1.739924,-0.111932 2.730026,-0.295302 2.988138,-0.553412 0.401497,-0.401499 1.912835,-0.837003 2.942555,-0.847921 0.52116,-0.0055 0.59531,0.128209 0.59531,1.073639 0,0.837551 0.20289,1.327555 0.90394,2.183089 1.39568,1.703244 2.09131,3.705855 1.90905,5.49583 -0.1357,1.332627 -0.0856,1.544238 0.49434,2.089089 0.60812,0.571297 0.78221,0.595932 3.01848,0.427115 l 2.37315,-0.17915 -0.39011,0.781984 c -0.35756,0.716757 -0.53829,0.796462 -2.16666,0.955599 -2.28675,0.223475 -2.70261,0.348167 -2.70261,0.810365 0,0.484574 -0.2776,0.494245 8.08902,-0.28172 10.00088,-0.927534 10.11679,-0.942829 10.27534,-1.355987 0.0769,-0.200475 0.38173,-0.364498 0.67734,-0.364498 0.61467,0 0.6454,0.09771 0.25823,0.821137 -0.63956,1.195028 0.69231,2.586096 2.00001,2.088907 0.89721,-0.341122 1.09214,-0.20451 0.52188,0.365749 -0.27718,0.277183 -0.88194,0.428374 -1.71349,0.428374 -1.68321,0 -2.22936,0.511942 -2.00995,1.88405 0.0879,0.54968 0.41226,1.42728 0.72081,1.95023 0.30854,0.52295 0.50417,1.00764 0.43471,1.0771 -0.0695,0.0694 -1.09625,0.20108 -2.28176,0.2925 -2.42164,0.18674 -2.52845,0.0923 -1.59792,-1.41336 0.76279,-1.23421 0.52962,-3.042723 -0.44984,-3.488993 -0.3657,-0.166624 -0.78931,-0.659818 -0.94136,-1.095989 -0.29348,-0.841878 -0.85314,-1.03755 -1.20373,-0.420857 -0.2621,0.461042 -2.72512,0.877628 -2.72512,0.46092 0,-0.953188 -4.16504,-0.812302 -5.43128,0.183716 -0.84676,0.666063 -2.35925,0.755449 -2.9409,0.173808 -0.21828,-0.218281 -0.65626,-0.405006 -0.97328,-0.414944 -0.36451,-0.01143 -1.06277,-0.591277 -1.89933,-1.57725 -0.72761,-0.857549 -1.48233,-1.563793 -1.67717,-1.569431 -0.22801,-0.0066 -0.11015,-0.300347 0.33073,-0.824302 2.01826,-2.398559 -1.09193,-5.387247 -3.304124,-3.17505 -0.543261,0.543261 -0.774025,1.035328 -0.775507,1.653646 l -0.0021,0.880247 -2.842162,0.02936 c -8.291821,0.08565 -13.903848,3.920805 -14.868997,10.161199 -0.517925,3.34877 0.667353,9.93225 2.269714,12.60685 1.342628,2.24106 2.694803,3.52851 9.62483,9.16408 3.419739,2.78097 8.777556,7.14926 11.906256,9.70731 3.12869,2.55804 7.29588,5.94577 9.26041,7.52829 1.96453,1.58251 4.2656,3.54306 5.11348,4.35677 5.92588,5.68705 8.48752,12.18932 8.50479,21.58781 0.009,4.74664 -0.29349,6.33239 -1.81521,9.525 -1.13929,2.39025 -2.68426,4.29403 -4.73691,5.83703 -3.08677,2.32037 -8.0683,4.42045 -9.66002,4.07241 -0.48075,-0.10511 -1.60079,-0.10543 -2.48899,-7.9e-4 -1.23551,0.14568 -1.73348,0.33685 -2.11966,0.81376 -0.4423,0.54623 -0.75634,0.62995 -2.5381,0.6766 -1.5418,0.0404 -1.83625,-0.003 -1.21807,-0.17882 z m 19.72719,-66.92234 c -0.0205,-0.65884 -0.19934,-1.43275 -0.39745,-1.71979 -0.19811,-0.28704 -0.41878,-1.35533 -0.49039,-2.37397 -0.1008,-1.43399 -0.29034,-2.08747 -0.83962,-2.89476 -0.53359,-0.78422 -0.62518,-1.08794 -0.36951,-1.22531 0.53357,-0.28669 4.44113,-0.58091 4.43962,-0.33428 -8e-4,0.12156 -0.29469,0.69726 -0.65321,1.27935 -0.53878,0.87476 -0.65327,1.40481 -0.6601,3.05593 -0.005,1.21268 -0.13557,2.12492 -0.33225,2.3216 -0.1782,0.1782 -0.39956,0.94616 -0.49192,1.70657 l -0.16791,1.38256 z m 2.89278,-25.3806 c -0.41764,-0.25812 -0.15061,-0.805874 0.39288,-0.805874 0.40217,0 0.52998,0.670608 0.17018,0.892969 -0.11608,0.07175 -0.36946,0.03256 -0.56306,-0.0871 z m 1.6893,-1.352643 c -0.0959,-0.155202 -0.13271,-0.307562 -0.0818,-0.338577 0.051,-0.03101 0.53461,-0.25714 1.07481,-0.502504 1.28599,-0.584121 1.5365,-0.146471 0.32523,0.568198 -1.09144,0.643966 -1.08922,0.643506 -1.31828,0.272883 z M 115.5524,94.461909 c -0.42369,-0.646634 -0.41712,-0.660768 0.38194,-0.820579 0.44718,-0.08943 1.31744,-0.16261 1.93391,-0.16261 1.05292,0 1.1132,0.0401 0.99442,0.661458 -0.073,0.382148 -0.30894,0.662689 -0.55862,0.664371 -0.2377,0.0016 -0.85706,0.07321 -1.37636,0.159118 -0.80491,0.133168 -1.00777,0.05916 -1.37529,-0.501758 z m 5.86001,-0.123293 c -0.0172,-0.109141 0.007,-0.3175 0.0541,-0.463021 0.047,-0.145521 0.15035,-1.276615 0.22977,-2.513542 0.14022,-2.183995 0.1635,-2.248958 0.80585,-2.248958 0.64671,0 0.6654,0.05602 0.83794,2.511499 0.12616,1.795571 0.0885,2.567493 -0.1323,2.707928 -0.40387,0.256932 -1.75497,0.261517 -1.79531,0.0061 z m -14.25616,-9.829323 c 0.81141,-0.108153 1.19062,-0.285103 1.19062,-0.555573 0,-0.285033 -0.2912,-0.396876 -1.03335,-0.396876 -1.14559,0 -1.60672,-0.562612 -0.63909,-0.779747 0.33776,-0.07579 3.41208,-0.447768 6.83182,-0.82661 3.41974,-0.378843 6.3963,-0.831994 6.61458,-1.007001 0.46464,-0.372527 4.05725,-0.257426 3.82246,0.122465 -0.0822,0.133064 -0.52945,0.242669 -0.99381,0.243565 -0.46435,9e-4 -1.16657,0.16977 -1.56049,0.375273 -0.39391,0.205504 -2.59177,0.568104 -4.88414,0.80578 -2.29236,0.237675 -4.32155,0.55963 -4.5093,0.715457 -0.18776,0.155826 -0.34139,0.48965 -0.34139,0.74183 0,0.373014 -0.33301,0.489961 -1.78593,0.627181 -0.98227,0.09277 -2.26219,0.151635 -2.84427,0.130813 l -1.05834,-0.03786 z m 1.05833,-3.173689 c 0,-0.215059 1.35162,-0.828807 2.75512,-1.251048 0.54802,-0.164871 0.85859,-0.493303 1.07474,-1.136543 0.1672,-0.497566 0.5585,-1.07365 0.86957,-1.280188 0.5286,-0.350979 0.5897,-0.31779 0.93486,0.507789 0.20312,0.485823 0.68977,1.054617 1.08145,1.263987 1.31012,0.700307 0.7695,1.178848 -1.69204,1.49774 -4.21486,0.546035 -5.0237,0.610157 -5.0237,0.398263 z m -8.844853,-0.791231 c -0.299294,-0.484267 0.05394,-0.767394 1.198693,-0.9608 1.17542,-0.198585 1.90415,0.163826 1.38111,0.68686 -0.42019,0.4202 -2.361977,0.62639 -2.579803,0.27394 z m 9.383633,-0.944689 c -0.4665,-0.56211 -0.16409,-0.847236 1.07485,-1.013414 1.26505,-0.169678 1.82595,-0.01865 1.82595,0.491656 0,0.837897 -2.29572,1.250823 -2.9008,0.521758 z m 7.53101,-0.863347 c -1.3806,-0.336339 -1.86157,-1.802685 -1.08164,-3.297608 0.20367,-0.39038 0.45311,-1.086757 0.5543,-1.547504 0.1337,-0.608716 0.26348,-0.758246 0.47473,-0.54699 0.21126,0.211257 0.20733,0.374144 -0.0144,0.595851 -0.20451,0.204511 -0.22202,0.460374 -0.0531,0.775983 0.19631,0.366805 0.1351,0.507971 -0.27696,0.638755 -1.13742,0.361006 -0.28685,2.248895 1.01323,2.248895 0.57627,0 1.63281,-0.843786 1.63281,-1.304017 0,-0.135127 -0.17951,-0.425192 -0.3989,-0.64459 -0.25553,-0.255526 -0.3006,-0.459662 -0.1254,-0.567943 0.15043,-0.09297 0.24064,-0.427985 0.20047,-0.744474 -0.0929,-0.732141 0.41483,-1.019511 0.54925,-0.310851 0.1317,0.694264 0.5117,0.917061 1.57254,0.92199 0.91644,0.0043 2.17079,0.972784 2.17079,1.676136 0,0.205271 -0.24677,0.686933 -0.54837,1.07036 -0.40017,0.508734 -0.79131,0.697139 -1.4473,0.697139 -0.86825,0 -0.89694,-0.03287 -0.84069,-0.963361 0.0765,-1.264724 -0.4512,-1.425791 -1.01648,-0.310284 -0.56319,1.11137 -1.17399,1.811527 -1.54598,1.77212 -0.15935,-0.01688 -0.52785,-0.0887 -0.81889,-0.159607 z m 2.43034,-6.331098 c -0.32465,-0.324652 -0.19123,-0.886936 0.21045,-0.886936 0.42792,0 0.80803,-1.101649 0.58271,-1.688826 -0.19307,-0.503113 0.53889,-1.486175 1.10656,-1.486175 0.25498,0 0.67375,0.153669 0.9306,0.341486 0.39558,0.289256 0.41894,0.446991 0.15272,1.03129 -0.18623,0.40871 -0.5998,0.746905 -1.01492,0.829928 -0.44499,0.089 -0.89876,0.486833 -1.24368,1.090369 -0.29868,0.522635 -0.62468,0.868624 -0.72444,0.768864 z"
         id="path828"
         inkscape:connector-curvature="0" />
    </g>
  </g>
</svg>
