<?xml version="1.0" encoding="utf-8"?>
<!DOCTYPE svg PUBLIC "-//W3C//DTD SVG 20010904//EN" "http://www.w3.org/TR/2001/REC-SVG-20010904/DTD/svg10.dtd">
<svg version="1.0" xmlns="http://www.w3.org/2000/svg" width="129px" height="144px" viewBox="0 0 129 144" preserveAspectRatio="xMidYMid meet">
 <g fill="#41a3b3">
  <path d="M0 72 l0 -72 64.5 0 64.5 0 0 72 0 72 -64.5 0 -64.5 0 0 -72z"/>
 </g>
 <g fill="#ed7b7b">
  <path d="M54.5 131.5 c-2.2 -1.3 -5.1 -4 -6.4 -5.9 -2.8 -4.2 -3.9 -11.9 -2.1 -14.1 2.3 -2.8 3.7 -1.7 4.2 3.4 0.6 6.2 3.6 10.4 9 12.6 5.4 2.1 9.8 1.3 14.3 -2.7 3.7 -3.2 6.5 -3.2 6.5 0 0 1 -1 2.8 -2.2 3.9 -6.5 5.9 -16.3 7.1 -23.3 2.8z"/>
  <path d="M80.3 120.4 c-4.2 -2.4 -5.9 -5.4 -5.1 -8.9 0.2 -1.4 0.9 -1.2 4 1.3 8 6.3 13.7 6.6 20.2 0.9 3.2 -2.7 3.9 -4 4.4 -8.7 0.6 -5 0.9 -5.5 3.2 -5.5 2 0 2.6 0.6 2.8 2.9 0.4 3.4 -2.1 10.4 -5 14.1 -5.2 6.7 -16.8 8.6 -24.5 3.9z"/>
  <path d="M26.5 119.5 c-6.6 -4 -9 -8.6 -9 -17.1 0 -6.6 0.3 -7.6 3.1 -11.1 1.9 -2.3 4.1 -3.9 5.8 -4.1 3.4 -0.4 3.3 0.6 -0.9 6.8 -3.9 5.8 -4.4 9.4 -1.9 14.6 2.2 4.6 6.4 7.4 12.2 8.2 3.9 0.6 4.8 1.1 5 3 0.3 2 0 2.2 -5 2.2 -3.8 0 -6.4 -0.7 -9.3 -2.5z"/>
  <path d="M53 112 c0 -2.4 3.3 -4.6 8.3 -5.5 2.5 -0.5 3.7 -0.4 3.7 0.5 0 2.6 -2.2 5 -5.8 6 -5.2 1.4 -6.2 1.3 -6.2 -1z"/>
  <path d="M66.1 112.5 c0 -1.1 0.4 -2.9 0.9 -4 0.8 -1.8 0.9 -1.8 0.9 0.5 0 1.4 -0.4 3.2 -0.9 4 -0.8 1.2 -1 1.2 -0.9 -0.5z"/>
  <path d="M32.7 109.6 c-3 -2.8 -4.5 -7.2 -2.9 -8.8 1.5 -1.5 4.3 -0.2 4.9 2.1 0.8 3.3 2.9 3.1 7.9 -0.5 4.3 -3 5 -3.2 6.4 -1.9 1.9 2 0.8 3.8 -4.5 7.6 -5.9 4.1 -8.6 4.5 -11.8 1.5z"/>
  <path d="M87.6 111.1 c-1 -1.5 0.4 -3.8 3 -4.9 3.2 -1.5 3 -2.9 -0.7 -8 -1.7 -2.3 -2.8 -4.9 -2.5 -5.7 1.1 -2.9 4.2 -1.5 7.6 3.2 4.4 6 4.6 10.6 0.6 13.9 -2.7 2.4 -7 3.2 -8 1.5z"/>
  <path d="M80.1 109.3 c-0.6 -1.2 -0.4 -2.8 1 -5.6 2.3 -4.4 4.4 -5.6 6.5 -3.5 1.4 1.3 1.2 1.9 -1 5.3 -1.4 2.1 -2.6 4.2 -2.6 4.6 0 1.6 -2.9 0.9 -3.9 -0.8z"/>
  <path d="M56.8 103.9 c2.1 -0.8 2.2 -1 0.8 -2.5 -1.5 -1.4 -2.3 -5.4 -1 -5.4 0.9 0 3.5 7.1 2.9 8 -0.4 0.6 -1.6 1 -2.8 0.9 -2.2 0 -2.2 0 0.1 -1z"/>
  <path d="M71.5 101.5 c-2.2 -0.8 -5.2 -1.4 -6.7 -1.4 -3 -0.1 -6.2 -2.7 -5.2 -4.3 0.8 -1.3 12.7 -0.5 16.6 1.1 2.3 0.9 2.6 1.4 1.9 3.3 -1 2.8 -1.7 2.9 -6.6 1.3z"/>
  <path d="M32.8 98.7 c-2.6 -1.2 -4.8 -2.5 -4.8 -2.9 0 -0.4 1.1 -1.5 2.4 -2.3 2.2 -1.5 2.7 -1.5 5.4 -0.1 4.8 2.5 6.5 4.6 5.1 6.2 -1.5 1.8 -2.4 1.7 -8.1 -0.9z"/>
  <path d="M51.1 98.4 c-1.2 -2.7 -1.1 -2.8 0.4 -1.2 1 0.9 1.6 2.1 1.3 2.8 -0.2 0.7 -1 -0.1 -1.7 -1.6z"/>
  <path d="M99.2 94.4 c-3.6 -2.5 -2.7 -4.1 2.7 -4.6 12.1 -1.2 18.1 -13.2 11.1 -22.4 -4.4 -5.9 -3.7 -10.2 1.3 -7 3.9 2.6 7.1 9.5 7.1 15.1 0 8.2 -6.1 17 -12.9 18.8 -5.9 1.5 -7.3 1.5 -9.3 0.1z"/>
  <path d="M76.3 94.4 c-2.5 -1.1 0 -3.4 3.5 -3.4 3.4 0 3.5 0 1.7 2 -1.8 2 -2.9 2.3 -5.2 1.4z"/>
  <path d="M11.8 90 c-5.8 -6.7 -7.1 -13.6 -3.9 -20.5 2.4 -5.2 6.6 -9.1 12 -11 5.8 -2 7.4 -1.9 9.7 0.6 1.6 1.7 1.6 2.2 0.4 2.9 -0.8 0.6 -3.1 1 -5 1 -11.7 0.1 -17.6 16.4 -8.6 23.9 2 1.7 2.1 4.5 0.2 6 -1.1 0.9 -2.1 0.4 -4.8 -2.9z"/>
  <path d="M37.7 89.6 c-0.3 -0.8 -0.2 -3 0.4 -4.8 0.5 -1.8 0.9 -4.7 0.9 -6.5 0 -2.3 0.8 -3.8 2.8 -5.3 l2.7 -2.2 0.3 4.3 c0.4 4.6 -1.3 12.6 -3 14.6 -1.4 1.7 -3.5 1.6 -4.1 -0.1z"/>
  <path d="M95.4 84.5 c-0.7 -1.9 -1.4 -4.6 -1.4 -6 0 -2.2 0.4 -2.6 2.3 -2.3 1.7 0.2 2.6 1.5 3.8 5.3 1.8 5.6 1.7 6.5 -1.2 6.5 -1.3 0 -2.5 -1.2 -3.5 -3.5z"/>
  <path d="M27.3 84.3 c0.9 -0.2 2.5 -0.2 3.5 0 0.9 0.3 0.1 0.5 -1.8 0.5 -1.9 0 -2.7 -0.2 -1.7 -0.5z"/>
  <path d="M83 84.5 c0 -0.6 5.6 -3.5 6.7 -3.5 1.4 0.1 -3.9 4 -5.3 4 -0.8 0 -1.4 -0.2 -1.4 -0.5z"/>
  <path d="M82.3 75.4 c0.7 -7.9 2.4 -14.4 3.7 -14.4 1.8 0 4.1 3.3 3.4 4.9 -0.3 0.9 -0.9 3.9 -1.1 6.6 -0.6 5.3 -1.5 7 -4.6 8.7 -1.9 1 -2 0.8 -1.4 -5.8z"/>
  <path d="M27.3 79.3 c0.9 -0.2 2.5 -0.2 3.5 0 0.9 0.3 0.1 0.5 -1.8 0.5 -1.9 0 -2.7 -0.2 -1.7 -0.5z"/>
  <path d="M28.1 74.8 c-0.5 -1.3 -1.2 -3.8 -1.6 -5.5 -0.6 -3.1 -0.5 -3.3 1.9 -3.3 2.9 0 4.4 2.3 4.8 7.2 0.3 2.8 -0.1 3.4 -1.9 3.6 -1.6 0.2 -2.5 -0.3 -3.2 -2z"/>
  <path d="M21.8 72.2 c-3.2 -0.4 -3.6 -1.7 -0.9 -3.1 1.4 -0.8 2.2 -0.7 3.1 0.4 1.7 2.1 0.9 3 -2.2 2.7z"/>
  <path d="M34.6 70.8 c-0.8 -3.1 -0.7 -3.8 0.3 -3.8 0.5 0 1.1 0.9 1.4 2.1 0.5 2 0.7 2 3.1 0.4 1.4 -0.9 3.1 -1.5 3.7 -1.3 1.3 0.4 -5 4.8 -6.9 4.8 -0.5 0 -1.2 -1 -1.6 -2.2z"/>
  <path d="M41 64 c1.4 -1 2.7 -1.6 3 -1.3 0.6 0.6 -3 3.3 -4.4 3.3 -0.6 0 0 -0.9 1.4 -2z"/>
  <path d="M98.7 64.4 c-0.3 -0.3 1 -2.9 3 -5.8 3.1 -4.5 3.4 -5.7 3.1 -9.8 -0.8 -8 -4.3 -11.3 -14.3 -13.5 -3.1 -0.6 -4 -1.3 -4 -2.8 0 -1.7 0.6 -2 5 -1.9 13 0.1 21.9 11.7 18.6 24.1 -1.8 6.7 -8.6 12.4 -11.4 9.7z"/>
  <path d="M34.1 59.3 c-1.7 -2.1 -3.6 -5.2 -4.2 -7 -1.9 -5.8 2.8 -11.3 8.8 -10.1 2.7 0.5 2.2 3.1 -0.9 4.6 -3.5 1.7 -3.5 2.9 0.2 8.3 3.5 5.2 3.6 5.5 1.1 6.9 -1.6 0.8 -2.5 0.4 -5 -2.7z"/>
  <path d="M90.3 59.4 c-7.9 -4.7 -4.6 -8.1 4.1 -4.3 l5.5 2.4 -2.1 2.3 c-2.6 2.7 -2.4 2.7 -7.5 -0.4z"/>
  <path d="M61.5 57.5 c-0.5 -0.1 -3.6 -0.8 -6.7 -1.5 -4.3 -0.8 -5.8 -1.6 -5.8 -2.8 0 -3.7 1.3 -4.2 6.4 -2.7 2.7 0.8 6.2 1.5 7.7 1.5 2.5 0 5.9 3 5.9 5.2 0 0.8 -5.4 1 -7.5 0.3z"/>
  <path d="M76 55.5 c-0.6 -0.8 -1 -2 -0.8 -2.6 0.2 -0.6 1.2 0 2.1 1.5 1.8 2.7 0.8 3.7 -1.3 1.1z"/>
  <path d="M41.1 53.1 c-1.1 -1.9 -0.9 -3 1.1 -6.9 1.2 -2.6 2.5 -4.9 2.6 -5.2 0.2 -0.3 1.2 0.5 2.2 1.7 2.2 2.8 1.7 5 -1.9 9.4 l-2.8 3.3 -1.2 -2.3z"/>
  <path d="M69.6 52.8 c-2 -2.8 -2 -4.4 0 -5.2 2.4 -0.9 4.6 -0.7 3.9 0.4 -0.3 0.6 -1.5 1 -2.6 1 -1.9 0 -1.9 0.1 -0.3 2.5 2.1 3.2 1.2 4.4 -1 1.3z"/>
  <path d="M17.3 52.5 c-0.9 -2.6 0.7 -9.8 3.2 -14 4.8 -8.4 17.6 -11.7 25.6 -6.8 3.8 2.4 6.3 6.1 5.7 8.6 -0.2 1.3 -1.3 1 -5.8 -1.8 -6.2 -4 -10.7 -4.5 -15.9 -1.7 -4 2.1 -7.1 7.3 -7.1 11.7 0 4.7 -4.2 7.7 -5.7 4z"/>
  <path d="M79 52.5 c-1.1 -1.3 -0.8 -2.1 1.6 -4.7 3.1 -3.3 8.1 -5.8 11.4 -5.8 3.4 0 7 4.4 7 8.5 0 1.9 -0.3 3.5 -0.7 3.5 -1.5 0 -3.5 -1.8 -4.6 -4 -1.8 -3.5 -2.9 -3.4 -7.8 0.5 -5 4 -5.2 4 -6.9 2z"/>
  <path d="M55.2 48.2 c-1.5 -1 -0.5 -4.2 1.3 -4.2 0.7 0 1.5 1.1 1.7 2.5 0.5 2.6 -0.6 3.2 -3 1.7z"/>
  <path d="M63.4 45.6 c-1 -2.7 0 -3.7 5.6 -5.7 3 -1 5.6 -1.9 5.8 -1.9 0.2 0 0.2 1.2 0 2.7 -0.3 2.9 -2.5 4.4 -8.1 5.7 -1.9 0.5 -2.9 0.2 -3.3 -0.8z"/>
  <path d="M77.7 42.9 c-0.4 -1.3 -0.7 -3.7 -0.7 -5.4 0 -7.8 -9.6 -14.8 -17 -12.6 -2 0.6 -4.9 2.2 -6.4 3.6 -2.9 2.7 -4.3 3 -6.6 1.5 -1.2 -0.8 -1 -1.4 1.5 -4.1 11.8 -12.6 31.4 -6.6 34.2 10.5 0.4 2.5 -0.1 3.9 -1.9 6.1 l-2.5 2.8 -0.6 -2.4z"/>
 </g>
 <g fill="#91979e">
  <path d="M58 121 c-2.7 -2.7 -1.6 -4.4 2.6 -3.7 3.9 0.7 4.9 -0.4 5.7 -5.7 0.7 -4.3 2.9 -7.2 4.6 -6.2 0.6 0.4 1.1 3.1 1.1 6.1 0 4.2 -0.4 5.7 -2 6.8 -1.1 0.8 -1.7 1.7 -1.3 2.1 1.2 1.1 -1.9 2.6 -5.4 2.6 -2 0 -4.1 -0.8 -5.3 -2z"/>
  <path d="M51.3 98.7 c-7 -10.4 -5.4 -15.1 2.1 -6.3 4.7 5.5 7 10.1 6 11.7 -1.4 2.3 -4.2 0.4 -8.1 -5.4z"/>
  <path d="M75.6 93.7 c-1.7 -1.2 -1.4 -1.7 3.5 -5.9 8.8 -7.4 12.7 -8.7 12.7 -4.3 0 1.8 -1.1 3.1 -3.7 4.7 -2 1.2 -4.9 3.2 -6.4 4.5 -3.3 2.7 -3.7 2.7 -6.1 1z"/>
  <path d="M28.9 84.9 c-7.4 -1.1 -11.8 -4.2 -11.9 -8.2 0 -3.2 2.9 -7.7 5.1 -7.7 2.3 0 3.6 2.7 2 4.3 -1.7 1.7 -1.3 4.5 0.7 5 0.9 0.3 3.8 0.8 6.5 1.2 4.8 0.6 5.7 1.9 3.5 4.6 -1 1.2 -2.3 1.4 -5.9 0.8z"/>
  <path d="M104.2 80.3 c0.3 -1 0.7 -2.4 0.9 -3.2 0.4 -1.4 -5 -5.2 -6.4 -4.4 -0.5 0.3 -1.9 0.2 -3.3 -0.1 -1.9 -0.5 -2.5 -1.2 -2.2 -2.9 0.3 -2 0.8 -2.2 5.8 -1.9 5.5 0.3 10.8 2.9 10.3 5.1 -0.2 0.6 0.2 1.1 0.7 1.1 0.6 0 1 0.7 1 1.5 0 0.8 -0.4 1.5 -0.8 1.5 -0.5 0 -0.8 1 -0.8 2.3 0.1 1.7 -0.5 2.3 -2.8 2.5 -2.4 0.3 -2.8 0 -2.4 -1.5z"/>
  <path d="M34.6 70.8 c-0.8 -3.3 -0.8 -3.8 0.7 -3.8 0.7 0 3.6 -1.6 6.4 -3.5 4.8 -3.2 10.3 -4.7 10.3 -2.7 0 1.9 -13.1 12.2 -15.5 12.2 -0.7 0 -1.5 -1 -1.9 -2.2z"/>
  <path d="M79.2 64.2 c-1.7 -0.5 -11.2 -13.1 -11.2 -14.7 0 -1.3 2.2 -2.5 4.6 -2.5 0.8 0 1.4 0.6 1.4 1.3 0 0.7 1.6 3.6 3.6 6.5 3.5 5.2 4.4 10.4 1.6 9.4z"/>
  <path d="M55.4 48 c-1.4 -1.4 0.2 -11.7 2.2 -14.7 0.8 -1.3 2.6 -2.6 4.1 -2.9 3.4 -0.9 7.8 1.5 7.8 4.1 0 1.7 -0.7 2 -4 2 -3.5 0 -4 0.3 -4.3 2.5 -0.8 8 -3.2 11.6 -5.8 9z"/>
 </g>
 <g fill="#c38589">
  <path d="M35 111 c0 -0.5 0.7 -1 1.5 -1 0.8 0 1.5 0.5 1.5 1 0 0.6 -0.7 1 -1.5 1 -0.8 0 -1.5 -0.4 -1.5 -1z"/>
  <path d="M37 100 c0 -0.5 0.7 -1 1.5 -1 0.8 0 1.5 0.5 1.5 1 0 0.6 -0.7 1 -1.5 1 -0.8 0 -1.5 -0.4 -1.5 -1z"/>
 </g>
</svg>