<svg xmlns="http://www.w3.org/2000/svg" version="1.0" width="129" height="144" preserveAspectRatio="xMidYMid meet"><rect id="backgroundrect" width="100%" height="100%" x="0" y="0" fill="none" stroke="none"/>
 
 
 
 
<g class="currentLayer" style=""><title>Layer 1</title><g fill="#557a95" id="svg_1" class="" fill-opacity="1">
  <path d="M0 72 l0 -72 64.5 0 64.5 0 0 72 0 72 -64.5 0 -64.5 0 0 -72z" id="svg_2" fill="#557a95"/>
 </g><g fill="#ed7b7b" id="svg_3" class="">
  <path d="M56.07479405403137,125.98818933963776 c-2.2,-1.3 -5.1,-4 -6.4,-5.9 c-2.8,-4.2 -3.9,-11.9 -2.1,-14.1 c2.3,-2.8 3.7,-1.7000000000000002 4.2,3.4 c0.6000000000000005,6.2 3.6,10.4 9,12.6 c5.4,2.1 9.8,1.3 14.3,-2.7 c3.7,-3.2 6.5,-3.2 6.5,0 c0,1 -1,2.8 -2.2,3.9 c-6.5,5.9 -16.3,7.1 -23.3,2.8 z" id="svg_4"/>
  <path d="M81.87479405403138,114.88818933963776 c-4.2,-2.4 -5.9,-5.4 -5.1,-8.9 c0.2,-1.4 0.9,-1.2 4,1.3 c8,6.3 13.7,6.6 20.2,0.9 c3.2,-2.7 3.9,-4 4.4,-8.7 c0.6000000000000005,-5 0.9,-5.5 3.2,-5.5 c2,0 2.6,0.6000000000000005 2.8,2.9 c0.4,3.4 -2.1,10.4 -5,14.1 c-5.2,6.7 -16.8,8.6 -24.5,3.9 z" id="svg_5"/>
  <path d="M28.074794054031372,113.98818933963776 c-6.6,-4 -9,-8.6 -9,-17.1 c0,-6.6 0.30000000000000027,-7.6 3.1,-11.1 c1.9,-2.3 4.1,-3.9 5.8,-4.1 c3.4,-0.4 3.3,0.6000000000000005 -0.9,6.8 c-3.9,5.8 -4.4,9.4 -1.9,14.6 c2.2,4.6 6.4,7.4 12.2,8.2 c3.9,0.6000000000000005 4.8,1.1 5,3 c0.30000000000000027,2 0,2.2 -5,2.2 c-3.8,0 -6.4,-0.7000000000000005 -9.3,-2.5 z" id="svg_6"/>
  <path d="M54.57479405403137,106.48818933963776 c0,-2.4 3.3,-4.6 8.3,-5.5 c2.5,-0.5 3.7,-0.4 3.7,0.5 c0,2.6 -2.2,5 -5.8,6 c-5.2,1.4 -6.2,1.3 -6.2,-1 z" id="svg_7"/>
  <path d="M67.67479405403137,106.98818933963776 c0,-1.1 0.4,-2.9 0.9,-4 c0.8,-1.8 0.9,-1.8 0.9,0.5 c0,1.4 -0.4,3.2 -0.9,4 c-0.8,1.2 -1,1.2 -0.9,-0.5 z" id="svg_8"/>
  <path d="M34.27479405403136,104.08818933963775 c-3,-2.8 -4.5,-7.2 -2.9,-8.8 c1.5,-1.5 4.3,-0.2 4.9,2.1 c0.8,3.3 2.9,3.1 7.9,-0.5 c4.3,-3 5,-3.2 6.4,-1.9 c1.9,2 0.8,3.8 -4.5,7.6 c-5.9,4.1 -8.6,4.5 -11.8,1.5 z" id="svg_9"/>
  <path d="M89.1747940540314,105.58818933963775 c-1,-1.5 0.4,-3.8 3,-4.9 c3.2,-1.5 3,-2.9 -0.7000000000000005,-8 c-1.7000000000000002,-2.3 -2.8,-4.9 -2.5,-5.7 c1.1,-2.9 4.2,-1.5 7.6,3.2 c4.4,6 4.6,10.6 0.6000000000000005,13.9 c-2.7,2.4 -7,3.2 -8,1.5 z" id="svg_10"/>
  <path d="M81.6747940540314,103.78818933963775 c-0.6000000000000005,-1.2 -0.4,-2.8 1,-5.6 c2.3,-4.4 4.4,-5.6 6.5,-3.5 c1.4,1.3 1.2,1.9 -1,5.3 c-1.4,2.1 -2.6,4.2 -2.6,4.6 c0,1.6 -2.9,0.9 -3.9,-0.8 z" id="svg_11"/>
  <path d="M58.37479405403138,98.38818933963776 c2.1,-0.8 2.2,-1 0.8,-2.5 c-1.5,-1.4 -2.3,-5.4 -1,-5.4 c0.9,0 3.5,7.1 2.9,8 c-0.4,0.6000000000000005 -1.6,1 -2.8,0.9 c-2.2,0 -2.2,0 0.1,-1 z" id="svg_12"/>
  <path d="M73.07479405403137,95.98818933963776 c-2.2,-0.8 -5.2,-1.4 -6.7,-1.4 c-3,-0.1 -6.2,-2.7 -5.2,-4.3 c0.8,-1.3 12.7,-0.5 16.6,1.1 c2.3,0.9 2.6,1.4 1.9,3.3 c-1,2.8 -1.7000000000000002,2.9 -6.6,1.3 z" id="svg_13"/>
  <path d="M34.37479405403138,93.18818933963776 c-2.6,-1.2 -4.8,-2.5 -4.8,-2.9 c0,-0.4 1.1,-1.5 2.4,-2.3 c2.2,-1.5 2.7,-1.5 5.4,-0.1 c4.8,2.5 6.5,4.6 5.1,6.2 c-1.5,1.8 -2.4,1.7000000000000002 -8.1,-0.9 z" id="svg_14"/>
  <path d="M52.674794054031366,92.88818933963776 c-1.2,-2.7 -1.1,-2.8 0.4,-1.2 c1,0.9 1.6,2.1 1.3,2.8 c-0.2,0.7000000000000005 -1,-0.1 -1.7000000000000002,-1.6 z" id="svg_15"/>
  <path d="M100.77479405403136,88.88818933963776 c-3.6,-2.5 -2.7,-4.1 2.7,-4.6 c12.1,-1.2 18.1,-13.2 11.1,-22.4 c-4.4,-5.9 -3.7,-10.2 1.3,-7 c3.9,2.6 7.1,9.5 7.1,15.1 c0,8.2 -6.1,17 -12.9,18.8 c-5.9,1.5 -7.3,1.5 -9.3,0.1 z" id="svg_16"/>
  <path d="M77.87479405403138,88.88818933963776 c-2.5,-1.1 0,-3.4 3.5,-3.4 c3.4,0 3.5,0 1.7000000000000002,2 c-1.8,2 -2.9,2.3 -5.2,1.4 z" id="svg_17"/>
  <path d="M13.374794054031383,84.48818933963776 c-5.8,-6.7 -7.1,-13.6 -3.9,-20.5 c2.4,-5.2 6.6,-9.1 12,-11 c5.8,-2 7.4,-1.9 9.7,0.6000000000000005 c1.6,1.7000000000000002 1.6,2.2 0.4,2.9 c-0.8,0.6000000000000005 -3.1,1 -5,1 c-11.7,0.1 -17.6,16.4 -8.6,23.9 c2,1.7000000000000002 2.1,4.5 0.2,6 c-1.1,0.9 -2.1,0.4 -4.8,-2.9 z" id="svg_18"/>
  <path d="M39.27479405403136,84.08818933963775 c-0.30000000000000027,-0.8 -0.2,-3 0.4,-4.8 c0.5,-1.8 0.9,-4.7 0.9,-6.5 c0,-2.3 0.8,-3.8 2.8,-5.3 l2.7,-2.2 l0.30000000000000027,4.3 c0.4,4.6 -1.3,12.6 -3,14.6 c-1.4,1.7000000000000002 -3.5,1.6 -4.1,-0.1 z" id="svg_19"/>
  <path d="M96.97479405403135,78.98818933963776 c-0.7000000000000005,-1.9 -1.4,-4.6 -1.4,-6 c0,-2.2 0.4,-2.6 2.3,-2.3 c1.7000000000000002,0.2 2.6,1.5 3.8,5.3 c1.8,5.6 1.7000000000000002,6.5 -1.2,6.5 c-1.3,0 -2.5,-1.2 -3.5,-3.5 z" id="svg_20"/>
  <path d="M28.874794054031383,78.78818933963775 c0.9,-0.2 2.5,-0.2 3.5,0 c0.9,0.30000000000000027 0.1,0.5 -1.8,0.5 c-1.9,0 -2.7,-0.2 -1.7000000000000002,-0.5 z" id="svg_21"/>
  <path d="M84.57479405403137,78.98818933963776 c0,-0.6000000000000005 5.6,-3.5 6.7,-3.5 c1.4,0.1 -3.9,4 -5.3,4 c-0.8,0 -1.4,-0.2 -1.4,-0.5 z" id="svg_22"/>
  <path d="M83.87479405403138,69.88818933963776 c0.7000000000000005,-7.9 2.4,-14.4 3.7,-14.4 c1.8,0 4.1,3.3 3.4,4.9 c-0.30000000000000027,0.9 -0.9,3.9 -1.1,6.6 c-0.6000000000000005,5.3 -1.5,7 -4.6,8.7 c-1.9,1 -2,0.8 -1.4,-5.8 z" id="svg_23"/>
  <path d="M28.874794054031383,73.78818933963775 c0.9,-0.2 2.5,-0.2 3.5,0 c0.9,0.30000000000000027 0.1,0.5 -1.8,0.5 c-1.9,0 -2.7,-0.2 -1.7000000000000002,-0.5 z" id="svg_24"/>
  <path d="M29.674794054031366,69.28818933963775 c-0.5,-1.3 -1.2,-3.8 -1.6,-5.5 c-0.6000000000000005,-3.1 -0.5,-3.3 1.9,-3.3 c2.9,0 4.4,2.3 4.8,7.2 c0.30000000000000027,2.8 -0.1,3.4 -1.9,3.6 c-1.6,0.2 -2.5,-0.30000000000000027 -3.2,-2 z" id="svg_25"/>
  <path d="M23.374794054031383,66.68818933963776 c-3.2,-0.4 -3.6,-1.7000000000000002 -0.9,-3.1 c1.4,-0.8 2.2,-0.7000000000000005 3.1,0.4 c1.7000000000000002,2.1 0.9,3 -2.2,2.7 z" id="svg_26"/>
  <path d="M36.174794054031366,65.28818933963775 c-0.8,-3.1 -0.7000000000000005,-3.8 0.30000000000000027,-3.8 c0.5,0 1.1,0.9 1.4,2.1 c0.5,2 0.7000000000000005,2 3.1,0.4 c1.4,-0.9 3.1,-1.5 3.7,-1.3 c1.3,0.4 -5,4.8 -6.9,4.8 c-0.5,0 -1.2,-1 -1.6,-2.2 z" id="svg_27"/>
  <path d="M42.57479405403137,58.488189339637756 c1.4,-1 2.7,-1.6 3,-1.3 c0.6000000000000005,0.6000000000000005 -3,3.3 -4.4,3.3 c-0.6000000000000005,0 0,-0.9 1.4,-2 z" id="svg_28"/>
  <path d="M100.27479405403136,58.88818933963776 c-0.30000000000000027,-0.30000000000000027 1,-2.9 3,-5.8 c3.1,-4.5 3.4,-5.7 3.1,-9.8 c-0.8,-8 -4.3,-11.3 -14.3,-13.5 c-3.1,-0.6000000000000005 -4,-1.3 -4,-2.8 c0,-1.7000000000000002 0.6000000000000005,-2 5,-1.9 c13,0.1 21.9,11.7 18.6,24.1 c-1.8,6.7 -8.6,12.4 -11.4,9.7 z" id="svg_29"/>
  <path d="M35.674794054031366,53.78818933963775 c-1.7000000000000002,-2.1 -3.6,-5.2 -4.2,-7 c-1.9,-5.8 2.8,-11.3 8.8,-10.1 c2.7,0.5 2.2,3.1 -0.9,4.6 c-3.5,1.7000000000000002 -3.5,2.9 0.2,8.3 c3.5,5.2 3.6,5.5 1.1,6.9 c-1.6,0.8 -2.5,0.4 -5,-2.7 z" id="svg_30"/>
  <path d="M91.87479405403138,53.888189339637755 c-7.9,-4.7 -4.6,-8.1 4.1,-4.3 l5.5,2.4 l-2.1,2.3 c-2.6,2.7 -2.4,2.7 -7.5,-0.4 z" id="svg_31"/>
  <path d="M63.07479405403137,51.988189339637756 c-0.5,-0.1 -3.6,-0.8 -6.7,-1.5 c-4.3,-0.8 -5.8,-1.6 -5.8,-2.8 c0,-3.7 1.3,-4.2 6.4,-2.7 c2.7,0.8 6.2,1.5 7.7,1.5 c2.5,0 5.9,3 5.9,5.2 c0,0.8 -5.4,1 -7.5,0.30000000000000027 z" id="svg_32"/>
  <path d="M77.57479405403137,49.988189339637756 c-0.6000000000000005,-0.8 -1,-2 -0.8,-2.6 c0.2,-0.6000000000000005 1.2,0 2.1,1.5 c1.8,2.7 0.8,3.7 -1.3,1.1 z" id="svg_33"/>
  <path d="M42.674794054031366,47.58818933963776 c-1.1,-1.9 -0.9,-3 1.1,-6.9 c1.2,-2.6 2.5,-4.9 2.6,-5.2 c0.2,-0.30000000000000027 1.2,0.5 2.2,1.7000000000000002 c2.2,2.8 1.7000000000000002,5 -1.9,9.4 l-2.8,3.3 l-1.2,-2.3 z" id="svg_34"/>
  <path d="M71.17479405403137,47.28818933963775 c-2,-2.8 -2,-4.4 0,-5.2 c2.4,-0.9 4.6,-0.7000000000000005 3.9,0.4 c-0.30000000000000027,0.6000000000000005 -1.5,1 -2.6,1 c-1.9,0 -1.9,0.1 -0.30000000000000027,2.5 c2.1,3.2 1.2,4.4 -1,1.3 z" id="svg_35"/>
  <path d="M18.874794054031383,46.988189339637756 c-0.9,-2.6 0.7000000000000005,-9.8 3.2,-14 c4.8,-8.4 17.6,-11.7 25.6,-6.8 c3.8,2.4 6.3,6.1 5.7,8.6 c-0.2,1.3 -1.3,1 -5.8,-1.8 c-6.2,-4 -10.7,-4.5 -15.9,-1.7000000000000002 c-4,2.1 -7.1,7.3 -7.1,11.7 c0,4.7 -4.2,7.7 -5.7,4 z" id="svg_36"/>
  <path d="M80.57479405403137,46.988189339637756 c-1.1,-1.3 -0.8,-2.1 1.6,-4.7 c3.1,-3.3 8.1,-5.8 11.4,-5.8 c3.4,0 7,4.4 7,8.5 c0,1.9 -0.30000000000000027,3.5 -0.7000000000000005,3.5 c-1.5,0 -3.5,-1.8 -4.6,-4 c-1.8,-3.5 -2.9,-3.4 -7.8,0.5 c-5,4 -5.2,4 -6.9,2 z" id="svg_37"/>
  <path d="M56.77479405403136,42.68818933963776 c-1.5,-1 -0.5,-4.2 1.3,-4.2 c0.7000000000000005,0 1.5,1.1 1.7000000000000002,2.5 c0.5,2.6 -0.6000000000000005,3.2 -3,1.7000000000000002 z" id="svg_38"/>
  <path d="M64.97479405403138,40.08818933963776 c-1,-2.7 0,-3.7 5.6,-5.7 c3,-1 5.6,-1.9 5.8,-1.9 c0.2,0 0.2,1.2 0,2.7 c-0.30000000000000027,2.9 -2.5,4.4 -8.1,5.7 c-1.9,0.5 -2.9,0.2 -3.3,-0.8 z" id="svg_39"/>
  <path d="M79.27479405403136,37.388189339637755 c-0.4,-1.3 -0.7000000000000005,-3.7 -0.7000000000000005,-5.4 c0,-7.8 -9.6,-14.8 -17,-12.6 c-2,0.6000000000000005 -4.9,2.2 -6.4,3.6 c-2.9,2.7 -4.3,3 -6.6,1.5 c-1.2,-0.8 -1,-1.4 1.5,-4.1 c11.8,-12.6 31.4,-6.6 34.2,10.5 c0.4,2.5 -0.1,3.9 -1.9,6.1 l-2.5,2.8 l-0.6000000000000005,-2.4 z" id="svg_40"/>
 </g><g fill="#91979e" id="svg_41" class="">
  <path d="M58,115.4881888628006 c-2.7,-2.7 -1.6,-4.4 2.6,-3.7 c3.9,0.7000000000000002 4.9,-0.4 5.7,-5.7 c0.7000000000000002,-4.3 2.9,-7.2 4.6,-6.2 c0.6000000000000002,0.4 1.1,3.1 1.1,6.1 c0,4.2 -0.4,5.7 -2,6.8 c-1.1,0.8 -1.7000000000000002,1.7000000000000002 -1.3,2.1 c1.2,1.1 -1.9,2.6 -5.4,2.6 c-2,0 -4.1,-0.8 -5.3,-2 z" id="svg_42"/>
  <path d="M51.30000000000001,93.1881888628006 c-7,-10.4 -5.4,-15.1 2.1,-6.3 c4.7,5.5 7,10.1 6,11.7 c-1.4,2.3 -4.2,0.4 -8.1,-5.4 z" id="svg_43"/>
  <path d="M75.60000000000002,88.1881888628006 c-1.7000000000000002,-1.2 -1.4,-1.7000000000000002 3.5,-5.9 c8.8,-7.4 12.7,-8.7 12.7,-4.3 c0,1.8 -1.1,3.1 -3.7,4.7 c-2,1.2 -4.9,3.2 -6.4,4.5 c-3.3,2.7 -3.7,2.7 -6.1,1 z" id="svg_44"/>
  <path d="M28.900000000000006,79.3881888628006 c-7.4,-1.1 -11.8,-4.2 -11.9,-8.2 c0,-3.2 2.9,-7.7 5.1,-7.7 c2.3,0 3.6,2.7 2,4.3 c-1.7000000000000002,1.7000000000000002 -1.3,4.5 0.7000000000000002,5 c0.9,0.3000000000000001 3.8,0.8 6.5,1.2 c4.8,0.6000000000000002 5.7,1.9 3.5,4.6 c-1,1.2 -2.3,1.4 -5.9,0.8 z" id="svg_45"/>
  <path d="M104.19999999999999,74.7881888628006 c0.3000000000000001,-1 0.7000000000000002,-2.4 0.9,-3.2 c0.4,-1.4 -5,-5.2 -6.4,-4.4 c-0.5,0.3000000000000001 -1.9,0.2 -3.3,-0.1 c-1.9,-0.5 -2.5,-1.2 -2.2,-2.9 c0.3000000000000001,-2 0.8,-2.2 5.8,-1.9 c5.5,0.3000000000000001 10.8,2.9 10.3,5.1 c-0.2,0.6000000000000002 0.2,1.1 0.7000000000000002,1.1 c0.6000000000000002,0 1,0.7000000000000002 1,1.5 c0,0.8 -0.4,1.5 -0.8,1.5 c-0.5,0 -0.8,1 -0.8,2.3 c0.1,1.7000000000000002 -0.5,2.3 -2.8,2.5 c-2.4,0.3000000000000001 -2.8,0 -2.4,-1.5 z" id="svg_46"/>
  <path d="M34.599999999999994,65.2881888628006 c-0.8,-3.3 -0.8,-3.8 0.7000000000000002,-3.8 c0.7000000000000002,0 3.6,-1.6 6.4,-3.5 c4.8,-3.2 10.3,-4.7 10.3,-2.7 c0,1.9 -13.1,12.2 -15.5,12.2 c-0.7000000000000002,0 -1.5,-1 -1.9,-2.2 z" id="svg_47"/>
  <path d="M79.19999999999999,58.6881888628006 c-1.7000000000000002,-0.5 -11.2,-13.1 -11.2,-14.7 c0,-1.3 2.2,-2.5 4.6,-2.5 c0.8,0 1.4,0.6000000000000002 1.4,1.3 c0,0.7000000000000002 1.6,3.6 3.6,6.5 c3.5,5.2 4.4,10.4 1.6,9.4 z" id="svg_48"/>
  <path d="M55.400000000000006,42.4881888628006 c-1.4,-1.4 0.2,-11.7 2.2,-14.7 c0.8,-1.3 2.6,-2.6 4.1,-2.9 c3.4,-0.9 7.8,1.5 7.8,4.1 c0,1.7000000000000002 -0.7000000000000002,2 -4,2 c-3.5,0 -4,0.3000000000000001 -4.3,2.5 c-0.8,8 -3.2,11.6 -5.8,9 z" id="svg_49"/>
 </g><g fill="#c38589" id="svg_50">
  <path d="M35 111 c0 -0.5 0.7 -1 1.5 -1 0.8 0 1.5 0.5 1.5 1 0 0.6 -0.7 1 -1.5 1 -0.8 0 -1.5 -0.4 -1.5 -1z" id="svg_51"/>
  <path d="M37 100 c0 -0.5 0.7 -1 1.5 -1 0.8 0 1.5 0.5 1.5 1 0 0.6 -0.7 1 -1.5 1 -0.8 0 -1.5 -0.4 -1.5 -1z" id="svg_52"/>
 </g></g></svg>