<?xml version="1.0" standalone="no"?>
<!DOCTYPE svg PUBLIC "-//W3C//DTD SVG 20010904//EN"
 "http://www.w3.org/TR/2001/REC-SVG-20010904/DTD/svg10.dtd">
<svg version="1.0" xmlns="http://www.w3.org/2000/svg"
 width="700.000000pt" height="700.000000pt" viewBox="0 0 700.000000 700.000000"
 preserveAspectRatio="xMidYMid meet">
<metadata>
Created by potrace 1.14, written by Peter Selinger 2001-2017
</metadata>
<g transform="translate(0.000000,700.000000) scale(0.100000,-0.100000)"
fill="#000000" stroke="none">
<path d="M4963 6708 c-31 -22 -59 -70 -65 -113 -3 -15 -14 -21 -51 -27 -86
-12 -97 -26 -152 -175 -43 -118 -115 -169 -272 -193 -83 -13 -123 -41 -123
-87 0 -15 -7 -36 -14 -45 -16 -21 -99 -40 -158 -36 -39 3 -45 6 -63 44 -34 70
-40 74 -114 74 -83 0 -151 -28 -152 -62 -1 -38 -7 -58 -23 -83 -9 -14 -15 -39
-14 -56 3 -36 10 -34 -119 -43 -51 -4 -103 -9 -115 -11 -13 -2 -43 -6 -68 -9
-25 -3 -58 -8 -75 -11 -16 -3 -46 -8 -65 -11 -19 -3 -64 -12 -100 -21 -553
-131 -855 -400 -946 -843 -18 -84 -26 -339 -14 -415 4 -27 11 -71 14 -97 8
-57 48 -216 77 -300 43 -129 136 -284 233 -387 57 -61 210 -195 322 -282 38
-30 71 -56 74 -59 3 -3 23 -19 45 -36 136 -104 203 -156 460 -354 88 -68 225
-173 305 -234 80 -60 204 -155 275 -211 72 -56 168 -130 215 -165 47 -35 87
-66 90 -69 3 -4 23 -19 45 -36 22 -16 45 -34 51 -40 6 -5 32 -28 59 -50 118
-98 218 -244 264 -385 45 -141 60 -246 57 -405 -4 -171 -20 -235 -78 -326 -46
-71 -139 -163 -208 -207 -30 -20 -80 -54 -110 -77 -83 -63 -123 -82 -218 -100
-12 -2 -66 -7 -120 -10 -176 -10 -206 -15 -267 -45 -71 -35 -90 -34 -220 17
-114 44 -163 49 -249 28 -38 -10 -86 -15 -107 -12 -57 8 -174 64 -264 127 -44
30 -99 61 -122 68 -54 16 -94 50 -128 108 -59 101 -131 164 -186 164 -47 0
-40 25 27 102 138 157 143 168 139 392 -4 196 -4 198 -51 324 -111 295 -247
548 -389 722 -105 128 -173 174 -259 172 -67 -1 -143 -17 -168 -36 -19 -14
-38 -57 -38 -85 0 -16 10 -18 76 -19 87 -1 126 -20 167 -79 64 -96 66 -229 7
-376 -38 -93 -81 -161 -172 -275 -87 -109 -127 -178 -158 -278 -24 -77 -33
-203 -18 -267 24 -109 104 -206 225 -274 75 -41 83 -62 58 -137 -10 -29 -15
-63 -12 -77 4 -13 32 -56 64 -95 256 -317 236 -295 325 -339 36 -18 86 -46
110 -63 37 -26 55 -31 124 -36 98 -7 143 -21 284 -92 158 -79 173 -83 289 -78
76 3 112 0 144 -12 62 -23 73 -23 172 3 110 29 139 30 240 8 148 -31 240 -43
310 -41 63 1 79 7 158 49 108 58 189 86 269 92 63 5 69 7 178 68 36 19 100 49
143 66 182 72 306 149 417 261 141 140 225 305 266 525 10 53 11 326 1 395 -4
30 -9 69 -12 85 -3 25 -21 114 -40 196 -2 9 -13 47 -24 84 -86 278 -236 461
-641 784 -139 110 -97 78 -335 257 -904 680 -959 722 -1133 861 -164 132 -242
207 -278 269 -61 104 -119 345 -123 511 -6 230 124 417 351 507 71 28 158 52
223 61 23 3 52 8 65 10 14 3 65 7 114 9 87 4 144 -5 155 -22 14 -21 92 -51
137 -53 72 -3 92 -13 170 -89 40 -39 83 -72 100 -76 16 -3 40 -14 54 -22 43
-27 144 -20 228 17 91 40 186 45 228 12 23 -18 36 -20 106 -16 74 5 85 3 125
-21 67 -39 71 -63 28 -150 -28 -58 -33 -78 -26 -97 15 -38 21 -110 26 -312 5
-199 11 -237 43 -282 26 -38 31 -57 36 -138 2 -39 14 -94 25 -123 12 -29 21
-66 21 -82 0 -66 48 -137 81 -119 27 14 40 43 50 116 5 35 16 77 24 93 9 17
17 67 19 120 4 77 10 103 36 157 30 62 32 70 26 152 -3 47 -8 165 -11 261 -7
218 -9 233 -35 270 -27 38 -40 83 -30 101 5 7 24 15 42 17 100 10 178 61 178
117 0 18 16 44 53 83 66 70 72 84 44 110 -34 30 -61 34 -108 15 -30 -11 -73
-17 -140 -17 -54 -1 -100 1 -102 4 -2 3 -7 46 -11 95 -9 126 -17 157 -46 173
-31 16 -86 7 -123 -19 -16 -12 -31 -18 -34 -15 -11 10 -18 130 -11 176 16 106
49 141 145 156 62 9 108 36 111 64 6 50 -18 65 -112 69 -47 1 -86 6 -86 10 0
3 13 15 29 26 65 43 88 131 51 192 -23 38 -48 53 -115 68 -40 9 -51 16 -53 34
-5 31 33 69 81 82 33 9 42 17 63 62 30 65 30 98 2 123 -55 48 -125 57 -175 22z
m-803 -789 c9 -16 8 -26 -4 -44 -22 -34 -20 -75 6 -102 32 -34 13 -41 -22 -8
-37 36 -60 84 -60 127 0 42 5 48 41 48 18 0 32 -7 39 -21z m465 -126 c11 -29
16 -366 5 -383 -16 -26 -38 8 -45 73 -8 70 -14 309 -8 320 8 14 41 7 48 -10z
m-2372 -3445 c41 -93 47 -163 17 -201 -13 -16 -19 -38 -18 -64 0 -21 -3 -47
-9 -58 -6 -11 -16 -49 -23 -85 -6 -36 -16 -70 -22 -77 -5 -6 -8 -20 -7 -30 1
-10 -3 -31 -9 -46 -7 -16 -12 -34 -12 -42 0 -7 -24 -39 -52 -70 -94 -100 -100
-130 -43 -217 43 -65 116 -109 233 -138 48 -12 47 -34 -2 -27 -17 3 -74 21
-126 42 -95 36 -101 37 -188 19 -30 -6 -38 -2 -79 37 -44 43 -80 100 -89 143
-11 46 -4 160 12 208 29 89 69 148 188 278 105 115 150 187 182 290 26 84 27
85 47 38z m-32 -1283 c90 -46 142 -90 189 -159 58 -85 108 -139 149 -161 23
-12 31 -22 31 -43 0 -40 -17 -52 -71 -52 -76 0 -97 13 -125 75 -13 31 -24 62
-24 70 0 26 -82 98 -177 157 -70 43 -94 63 -99 84 -5 21 -2 31 15 45 24 19 50
15 112 -16z m597 -197 c47 -24 49 -36 7 -57 -34 -16 -50 -9 -82 39 -45 65 -27
69 75 18z m472 -220 c63 -17 119 -35 124 -39 5 -5 1 -19 -8 -35 -15 -22 -23
-25 -51 -21 -19 3 -49 13 -67 21 -37 18 -138 105 -123 106 6 0 62 -14 125 -32z
m787 -17 c34 -22 51 -57 34 -74 -14 -14 -228 -14 -242 0 -11 11 16 32 91 70
55 28 76 29 117 4z m-1004 -181 c20 -11 46 -20 56 -20 24 0 37 -18 24 -31 -5
-5 -26 -12 -45 -15 -29 -5 -45 0 -87 27 -28 19 -51 39 -51 46 0 20 60 16 103
-7z"/>
</g>
</svg>
